<svg width="126" height="26" viewBox="0 0 126 26" fill="none" xmlns="http://www.w3.org/2000/svg">
<path d="M0.52 16.4002H5.12V20.6402C5.12 21.0402 5.2 21.3202 5.36 21.4802C5.52 21.6402 5.82667 21.7202 6.28 21.7202H7.24C7.69333 21.7202 7.98667 21.6402 8.12 21.4802C8.28 21.3202 8.36 21.0402 8.36 20.6402V0.000232697H13V21.2802C13 22.5336 12.6533 23.5069 11.96 24.2002C11.2667 24.8936 10.16 25.2402 8.64 25.2402H4.88C3.33333 25.2402 2.21333 24.8936 1.52 24.2002C0.853333 23.5069 0.52 22.5336 0.52 21.2802V16.4002ZM25.5647 15.5202V4.60023C25.5647 4.17357 25.4847 3.89357 25.3247 3.76023C25.1914 3.60023 24.898 3.52023 24.4447 3.52023H23.0847V0.000232697H25.8047C27.3514 0.000232697 28.458 0.3469 29.1247 1.04023C29.818 1.73357 30.1647 2.7069 30.1647 3.96023V15.5202H25.5647ZM25.5647 20.6402V14.1602H30.1647V21.2802C30.1647 22.5336 29.818 23.5069 29.1247 24.2002C28.458 24.8936 27.3514 25.2402 25.8047 25.2402H22.9247V21.7202H24.4447C24.898 21.7202 25.1914 21.6402 25.3247 21.4802C25.4847 21.3202 25.5647 21.0402 25.5647 20.6402ZM21.1647 4.60023V15.5202H16.5647V3.96023C16.5647 2.7069 16.9114 1.73357 17.6047 1.04023C18.298 0.3469 19.4047 0.000232697 20.9247 0.000232697H23.6447V3.52023H22.3247C21.8714 3.52023 21.5647 3.60023 21.4047 3.76023C21.2447 3.89357 21.1647 4.17357 21.1647 4.60023ZM21.1647 13.9602V20.6402C21.1647 21.0402 21.2447 21.3202 21.4047 21.4802C21.5647 21.6402 21.8714 21.7202 22.3247 21.7202H23.6047V25.2402H20.9247C19.4047 25.2402 18.298 24.8936 17.6047 24.2002C16.9114 23.5069 16.5647 22.5336 16.5647 21.2802V13.9602H21.1647ZM38.6731 12.5602H43.4731L48.6331 25.2402H43.6731L38.6731 12.5602ZM43.4731 12.5602H38.6731L43.7131 0.000232697H48.6731L43.4731 12.5602ZM33.8731 0.000232697H38.4731V25.2402H33.8731V0.000232697ZM50.9044 0.000232697H55.5444V25.2402H50.9044V0.000232697ZM61.7444 10.5202V14.0802H53.2244V10.5202H61.7444ZM62.9044 0.000232697V3.52023H52.9844V0.000232697H62.9044ZM63.2244 21.7202V25.2402H52.9844V21.7202H63.2244ZM74.9053 10.9202V4.60023C74.9053 4.17357 74.8253 3.89357 74.6653 3.76023C74.532 3.60023 74.2386 3.52023 73.7853 3.52023H66.9053V0.000232697H75.1453C76.692 0.000232697 77.7986 0.3469 78.4653 1.04023C79.1586 1.73357 79.5053 2.7069 79.5053 3.96023V11.4402C79.5053 12.6936 79.1586 13.6669 78.4653 14.3602C77.7986 15.0536 76.692 15.4002 75.1453 15.4002H67.8253V12.0002H73.7853C74.2386 12.0002 74.532 11.9202 74.6653 11.7602C74.8253 11.6002 74.9053 11.3202 74.9053 10.9202ZM65.8653 0.000232697H70.4653V25.2402H65.8653V0.000232697ZM71.2653 13.6002H75.8653L80.7853 25.2402H75.8253L71.2653 13.6002Z" fill="white"/>
<path d="M89 0.740234H114C120.351 0.740234 125.5 5.88896 125.5 12.2402V23.2402C125.5 24.0687 124.828 24.7402 124 24.7402H99C92.6487 24.7402 87.5 19.5915 87.5 13.2402V2.24023C87.5 1.41181 88.1716 0.740234 89 0.740234Z" fill="#1D1811"/>
<path d="M89 0.740234H114C120.351 0.740234 125.5 5.88896 125.5 12.2402V23.2402C125.5 24.0687 124.828 24.7402 124 24.7402H99C92.6487 24.7402 87.5 19.5915 87.5 13.2402V2.24023C87.5 1.41181 88.1716 0.740234 89 0.740234Z" stroke="#FFDEA8"/>
<path d="M100.091 18.2402H96.1477V6.60387H100.17C101.326 6.60387 102.318 6.83683 103.148 7.30273C103.981 7.76486 104.621 8.42963 105.068 9.29705C105.515 10.1645 105.739 11.2024 105.739 12.4107C105.739 13.6228 105.513 14.6645 105.062 15.5357C104.616 16.4069 103.97 17.0755 103.125 17.5414C102.284 18.0073 101.273 18.2402 100.091 18.2402ZM98.2557 16.4164H99.9886C100.799 16.4164 101.475 16.2686 102.017 15.9732C102.559 15.6739 102.966 15.2289 103.239 14.638C103.511 14.0433 103.648 13.3008 103.648 12.4107C103.648 11.5205 103.511 10.7819 103.239 10.1948C102.966 9.60387 102.563 9.16258 102.028 8.87092C101.498 8.57546 100.839 8.42773 100.051 8.42773H98.2557V16.4164ZM114.865 9.80273C114.812 9.30652 114.589 8.92016 114.195 8.64364C113.805 8.36713 113.297 8.22887 112.672 8.22887C112.233 8.22887 111.856 8.29516 111.541 8.42773C111.227 8.56031 110.987 8.74023 110.82 8.96751C110.653 9.19478 110.568 9.45425 110.564 9.74592C110.564 9.98834 110.619 10.1986 110.729 10.3766C110.843 10.5546 110.996 10.7061 111.189 10.8311C111.382 10.9524 111.596 11.0546 111.831 11.138C112.066 11.2213 112.303 11.2914 112.541 11.3482L113.632 11.6209C114.072 11.7232 114.494 11.8614 114.899 12.0357C115.309 12.2099 115.674 12.4296 115.996 12.6948C116.322 12.9599 116.579 13.28 116.769 13.655C116.958 14.03 117.053 14.4694 117.053 14.9732C117.053 15.655 116.879 16.2554 116.53 16.7743C116.182 17.2895 115.678 17.6929 115.019 17.9846C114.363 18.2724 113.57 18.4164 112.638 18.4164C111.733 18.4164 110.947 18.2762 110.28 17.9959C109.617 17.7156 109.098 17.3065 108.723 16.7686C108.352 16.2308 108.151 15.5755 108.121 14.8027H110.195C110.225 15.208 110.35 15.5452 110.57 15.8141C110.79 16.083 111.076 16.2838 111.428 16.4164C111.784 16.5489 112.182 16.6152 112.621 16.6152C113.079 16.6152 113.481 16.5471 113.826 16.4107C114.174 16.2705 114.447 16.0774 114.644 15.8311C114.841 15.5811 114.941 15.2895 114.945 14.9561C114.941 14.6531 114.852 14.4031 114.678 14.2061C114.504 14.0054 114.259 13.8387 113.945 13.7061C113.634 13.5698 113.271 13.4486 112.854 13.3425L111.53 13.0016C110.572 12.7554 109.814 12.3823 109.257 11.8823C108.704 11.3785 108.428 10.7099 108.428 9.8766C108.428 9.19099 108.613 8.59061 108.985 8.07546C109.36 7.56031 109.869 7.16069 110.513 6.8766C111.157 6.58872 111.886 6.44478 112.701 6.44478C113.526 6.44478 114.25 6.58872 114.871 6.8766C115.496 7.16069 115.987 7.55652 116.343 8.0641C116.699 8.56789 116.882 9.14743 116.894 9.80273H114.865Z" fill="#FFDEA8"/>
</svg>
