<svg width="1116" height="1154" viewBox="0 0 1116 1154" fill="none" xmlns="http://www.w3.org/2000/svg">
<rect x="10" y="48" width="1095.22" height="1095.22" rx="547.611" fill="#171717"/>
<rect x="10" y="48" width="1095.22" height="1095.22" rx="547.611" stroke="#FFDEA8" stroke-width="20"/>
<path d="M593.147 174.351C569.579 172.366 546.263 172.357 523.35 174.197L528.964 256.756C547.671 255.12 566.793 255.194 586.203 256.829L593.147 174.351Z" fill="#212121"/>
<path d="M593.851 166.032L601.041 80.6428C572.62 78.2497 544.555 78.2598 517.008 80.4076L522.782 166.051C545.984 164.096 569.727 164.001 593.851 166.032Z" fill="#212121"/>
<path d="M519.41 174.568C495.768 176.765 472.807 180.835 450.676 186.649L470.573 267.06C488.705 262.305 507.564 258.867 526.977 257.151L519.41 174.568Z" fill="#DB3E3E"/>
<path d="M518.712 166.274L510.963 80.8838C482.538 83.516 454.908 88.3092 428.074 95.2634L448.708 178.528C471.266 172.61 494.643 168.575 518.712 166.274Z" fill="#DB3E3E"/>
<path d="M446.831 187.575C423.971 193.747 402.07 201.815 381.16 211.362L414.718 287.06C431.859 279.15 449.728 272.557 468.588 267.445L446.831 187.575Z" fill="#212121"/>
<path d="M444.709 179.585L422.214 96.8619C394.64 104.312 368.277 113.959 343.022 125.373L377.744 203.822C399.093 194.032 421.41 186 444.709 179.585Z" fill="#212121"/>
<path d="M377.67 213.024C356.159 223.079 336.045 234.787 317.074 247.848L363.22 316.648C378.642 305.941 395.23 296.31 412.823 288.019L377.67 213.024Z" fill="#DB3E3E"/>
<path d="M374.104 205.603L337.636 127.985C311.756 140.185 287.4 154.189 264.729 169.73L312.629 240.912C331.751 227.724 352.304 215.774 374.104 205.603Z" fill="#DB3E3E"/>
<path d="M313.947 250.101C294.502 263.82 276.765 278.799 260.333 294.866L317.717 354.561C331.12 341.311 345.7 328.997 361.585 317.771L313.947 250.101Z" fill="#212121"/>
<path d="M309.221 243.278L259.829 173.227C236.522 189.692 214.901 207.694 195.254 227.12L254.693 288.943C271.299 272.472 289.475 257.25 309.221 243.278Z" fill="#212121"/>
<path d="M257.736 297.577C240.957 314.452 226.049 332.322 212.746 351.025L279.706 399.8C290.499 384.376 302.759 369.773 316.485 355.991L257.736 297.577Z" fill="#DB3E3E"/>
<path d="M251.8 291.768L190.984 231.365C170.852 251.587 152.705 273.094 136.707 295.618L206.022 346.267C219.499 327.16 234.859 308.909 251.8 291.768Z" fill="#DB3E3E"/>
<path d="M210.52 354.188C197.008 373.711 185.403 393.814 175.552 414.622L249.976 451.043C257.974 433.987 267.462 417.475 278.58 401.52L210.52 354.188Z" fill="#212121"/>
<path d="M203.652 349.561L133.214 300.633C116.857 324.105 102.809 348.329 90.9337 373.295L168.036 411.058C178.06 389.845 189.978 369.35 203.652 349.561Z" fill="#212121"/>
<path d="M173.867 418.111C163.958 439.613 155.967 461.556 149.917 483.662L229.516 506.698C234.396 488.542 240.94 470.525 249.123 452.927L173.867 418.111Z" fill="#DB3E3E"/>
<path d="M166.333 414.688L88.524 378.68C76.5666 404.617 66.9427 431.029 59.537 457.627L142.001 481.463C148.086 458.941 156.251 436.594 166.333 414.688Z" fill="#DB3E3E"/>
<path d="M148.891 487.484C142.771 510.422 138.881 533.408 136.678 556.257L219.004 565.143C220.719 546.441 223.981 527.591 228.919 508.741L148.891 487.484Z" fill="#212121"/>
<path d="M140.836 485.406L57.9317 463.488C50.583 491.068 45.7414 518.721 43.0027 546.271L128.379 555.414C130.618 532.15 134.681 508.759 140.836 485.406Z" fill="#212121"/>
<path d="M136.219 560.127C134.235 583.692 134.226 607.005 136.067 629.915L218.637 624.303C217.001 605.599 217.075 586.479 218.709 567.073L136.219 560.127Z" fill="#DB3E3E"/>
<path d="M128.038 559.437L42.6367 552.246C40.244 580.663 40.2547 608.724 42.4035 636.267L128.059 630.496C126.114 607.158 126.019 583.418 128.038 559.437Z" fill="#DB3E3E"/>
<path d="M136.573 633.869C138.771 657.508 142.842 680.466 148.658 702.594L229.08 682.702C224.323 664.572 220.885 645.715 219.168 626.306L136.573 633.869Z" fill="#212121"/>
<path d="M128.277 634.568L42.8741 642.315C45.5074 670.736 50.3019 698.362 57.2577 725.193L140.534 704.564C134.614 682.008 130.44 658.622 128.277 634.568Z" fill="#212121"/>
<path d="M149.601 706.298C155.775 729.154 163.844 751.053 173.393 771.959L249.101 738.408C241.189 721.269 234.595 703.403 229.481 684.545L149.601 706.298Z" fill="#DB3E3E"/>
<path d="M141.594 708.552L58.8595 731.042C66.3115 758.612 75.9598 784.972 87.3768 810.224L165.835 775.508C156.044 754.162 147.871 731.836 141.594 708.552Z" fill="#DB3E3E"/>
<path d="M175.043 775.596C185.1 797.103 196.81 817.215 209.873 836.184L278.682 790.046C267.973 774.626 258.34 758.039 250.047 740.449L175.043 775.596Z" fill="#212121"/>
<path d="M167.494 778.997L89.866 815.458C102.068 841.335 116.074 865.688 131.618 888.356L202.809 840.464C189.757 821.356 177.805 800.806 167.494 778.997Z" fill="#212121"/>
<path d="M212.123 839.302C225.845 858.745 240.827 876.48 256.896 892.91L316.598 835.535C303.346 822.134 291.03 807.556 279.801 791.673L212.123 839.302Z" fill="#DB3E3E"/>
<path d="M205.299 844.033L135.239 893.416C151.707 916.721 169.713 938.339 189.142 957.984L250.972 898.555C234.498 881.951 219.274 863.777 205.299 844.033Z" fill="#DB3E3E"/>
<path d="M259.605 895.513C276.483 912.29 294.356 927.197 313.062 940.499L361.843 873.549C346.416 862.757 331.81 850.499 318.026 836.774L259.605 895.513Z" fill="#212121"/>
<path d="M253.801 901.441L193.391 962.246C213.617 982.377 235.127 1000.52 257.655 1016.52L308.309 947.213C289.072 933.588 270.945 918.38 253.801 901.441Z" fill="#212121"/>
<path d="M316.231 942.715C335.758 956.225 355.863 967.83 376.675 977.679L413.099 903.267C396.041 895.27 379.526 885.782 363.568 874.666L316.231 942.715Z" fill="#DB3E3E"/>
<path d="M311.47 949.433L262.537 1019.86C286.012 1036.22 310.241 1050.26 335.21 1062.14L372.977 985.046C351.888 975.173 331.389 963.256 311.47 949.433Z" fill="#DB3E3E"/>
<path d="M380.159 979.375C401.664 989.282 423.61 997.273 445.719 1003.32L468.757 923.735C450.598 918.855 432.579 912.312 414.978 904.129L380.159 979.375Z" fill="#212121"/>
<path d="M376.733 986.905L340.722 1064.7C366.663 1076.66 393.078 1086.28 419.681 1093.69L443.518 1011.23C420.993 1005.15 398.643 996.986 376.733 986.905Z" fill="#212121"/>
<path d="M449.541 1004.34C472.482 1010.46 495.471 1014.35 518.323 1016.55L527.209 934.239C508.505 932.524 489.651 929.261 470.799 924.323L449.541 1004.34Z" fill="#DB3E3E"/>
<path d="M447.465 1012.41L425.546 1095.3C453.131 1102.65 480.787 1107.49 508.341 1110.23L517.484 1024.86C494.077 1022.61 470.684 1018.55 447.465 1012.41Z" fill="#DB3E3E"/>
<path d="M522.207 1016.88C545.776 1018.86 569.092 1018.87 592.005 1017.03L586.391 934.474C567.683 936.109 548.561 936.035 529.152 934.401L522.207 1016.88Z" fill="#212121"/>
<path d="M521.508 1025.2L514.318 1110.58C542.739 1112.98 570.804 1112.97 598.35 1110.82L592.577 1025.18C569.236 1027.12 545.492 1027.21 521.508 1025.2Z" fill="#212121"/>
<path d="M595.945 1016.66C619.586 1014.46 642.548 1010.39 664.679 1004.58L644.782 924.17C626.649 928.925 607.79 932.363 588.378 934.078L595.945 1016.66Z" fill="#DB3E3E"/>
<path d="M596.641 1024.96L604.39 1110.35C632.815 1107.71 660.445 1102.92 687.28 1095.97L666.646 1012.7C644.087 1018.62 620.71 1022.66 596.641 1024.96Z" fill="#DB3E3E"/>
<path d="M668.389 1003.63C691.248 997.459 713.15 989.392 734.059 979.845L700.501 904.147C683.36 912.057 665.492 918.65 646.631 923.762L668.389 1003.63Z" fill="#212121"/>
<path d="M670.645 1011.65L693.139 1094.38C720.714 1086.93 747.077 1077.28 772.332 1065.86L737.471 987.405C716.122 997.194 693.805 1005.23 670.645 1011.65Z" fill="#212121"/>
<path d="M737.553 978.191C759.063 968.136 779.177 956.428 798.149 943.367L752.002 874.567C736.58 885.274 719.992 894.906 702.4 903.197L737.553 978.191Z" fill="#DB3E3E"/>
<path d="M741.111 985.61L777.579 1063.23C803.459 1051.03 827.815 1037.02 850.486 1021.48L802.586 950.301C783.464 963.489 762.911 975.439 741.111 985.61Z" fill="#DB3E3E"/>
<path d="M801.27 941.119C820.716 927.4 838.452 912.421 854.884 896.354L797.5 836.659C784.098 849.909 769.518 862.223 753.633 873.449L801.27 941.119Z" fill="#212121"/>
<path d="M806.138 947.954L855.53 1018C878.837 1001.54 900.458 983.537 920.105 964.111L860.666 902.288C843.921 918.747 825.745 933.969 806.138 947.954Z" fill="#212121"/>
<path d="M857.624 893.65C874.403 876.775 889.312 858.905 902.615 840.202L835.654 791.427C824.861 806.851 812.601 821.454 798.875 835.236L857.624 893.65Z" fill="#DB3E3E"/>
<path d="M863.418 899.439L924.233 959.842C944.366 939.62 962.513 918.113 978.511 895.588L909.195 844.94C895.719 864.047 880.498 882.31 863.418 899.439Z" fill="#DB3E3E"/>
<path d="M904.836 837.037C918.348 817.514 929.954 797.411 939.804 776.602L865.381 740.182C857.383 757.237 847.894 773.749 836.777 789.705L904.836 837.037Z" fill="#212121"/>
<path d="M911.568 841.651L982.006 890.58C998.364 867.108 1012.41 842.883 1024.29 817.917L947.184 780.154C937.16 801.367 925.381 821.874 911.568 841.651Z" fill="#212121"/>
<path d="M941.506 772.986C951.414 751.484 959.405 729.541 965.455 707.435L885.844 684.538C880.964 702.694 874.421 720.71 866.237 738.309L941.506 772.986Z" fill="#DB3E3E"/>
<path d="M949.022 776.549C948.883 776.537 948.883 776.537 949.022 776.549L1026.83 812.557C1038.79 786.62 1048.41 760.208 1055.82 733.61L973.353 709.774C967.13 732.284 959.104 754.643 949.022 776.549Z" fill="#DB3E3E"/>
<path d="M966.458 703.747C972.578 680.809 976.468 657.823 978.671 634.975L896.344 626.088C894.63 644.79 891.367 663.641 886.429 682.49L966.458 703.747Z" fill="#212121"/>
<path d="M974.387 705.813L1057.29 727.731C1064.64 700.15 1069.48 672.498 1072.22 644.948L986.844 635.805C984.745 659.081 980.542 682.459 974.387 705.813Z" fill="#212121"/>
<path d="M979.001 631.086C980.985 607.521 980.993 584.208 979.152 561.298L896.582 566.909C898.219 585.614 898.145 604.733 896.511 624.14L979.001 631.086Z" fill="#DB3E3E"/>
<path d="M987.183 631.781L1072.58 638.972C1074.98 610.555 1074.97 582.494 1072.82 554.951L987.163 560.722C989.246 584.071 989.202 607.8 987.183 631.781Z" fill="#DB3E3E"/>
<path d="M978.789 557.361C976.59 533.723 972.52 510.765 966.704 488.637L886.282 508.529C891.039 526.659 894.477 545.515 896.194 564.925L978.789 557.361Z" fill="#212121"/>
<path d="M986.948 556.659L1072.35 548.912C1069.72 520.491 1064.92 492.865 1057.97 466.034L974.691 486.663C980.61 509.219 984.785 532.605 986.948 556.659Z" fill="#212121"/>
<path d="M965.768 484.798C959.595 461.942 951.526 440.043 941.977 419.137L866.269 452.688C874.181 469.827 880.774 487.693 885.888 506.551L965.768 484.798Z" fill="#DB3E3E"/>
<path d="M973.63 482.667L1056.36 460.177C1048.91 432.607 1039.26 406.247 1027.85 380.995L949.389 415.711C959.18 437.057 967.353 459.383 973.63 482.667Z" fill="#DB3E3E"/>
<path d="M940.319 415.634C930.262 394.126 918.552 374.014 905.488 355.045L836.668 401.322C847.377 416.742 857.01 433.328 865.303 450.918L940.319 415.634Z" fill="#3EDA41"/>
<path d="M947.727 412.212L1025.36 375.751C1013.15 349.874 999.147 325.521 983.603 302.853L912.413 350.745C925.614 369.726 937.567 390.276 947.727 412.212Z" fill="#3EDA41"/>
<path d="M903.246 351.93C889.525 332.487 874.543 314.752 858.473 298.322L798.771 355.697C812.024 369.098 824.339 383.676 835.568 399.559L903.246 351.93Z" fill="#DB3E3E"/>
<path d="M909.923 347.184L979.983 297.801C963.515 274.497 945.509 252.878 926.08 233.234L864.389 292.675C880.724 309.267 896.087 327.452 909.923 347.184Z" fill="#DB3E3E"/>
<path d="M855.615 295.704C838.737 278.927 820.864 264.02 802.158 250.719L753.389 317.53C768.816 328.322 783.421 340.58 797.205 354.305L855.615 295.704Z" fill="#212121"/>
<path d="M861.417 289.772L921.827 228.966C901.602 208.836 880.092 190.691 857.564 174.695L807.048 244.011C826.147 257.625 844.412 272.844 861.417 289.772Z" fill="#212121"/>
<path d="M798.992 248.499C779.465 234.989 759.359 223.385 738.547 213.535L702.124 287.947C719.182 295.945 735.696 305.432 751.655 316.548L798.992 248.499Z" fill="#DB3E3E"/>
<path d="M803.76 241.638C803.748 241.777 803.748 241.777 803.76 241.638L852.694 171.211C829.218 154.856 804.99 140.81 780.02 128.935L742.253 206.026C763.331 216.037 783.968 227.966 803.76 241.638Z" fill="#DB3E3E"/>
<path d="M735.058 211.847C713.553 201.939 691.607 193.949 669.498 187.899L646.461 267.487C664.62 272.366 682.638 278.909 700.24 287.092L735.058 211.847Z" fill="#212121"/>
<path d="M738.626 204.331L774.636 126.534C748.696 114.578 722.28 104.955 695.678 97.5492L671.841 180.001C694.366 186.086 716.716 194.25 738.626 204.331Z" fill="#212121"/>
<path d="M665.815 186.892C642.874 180.773 619.885 176.882 597.033 174.679L588.147 256.994C606.851 258.708 625.705 261.971 644.557 266.909L665.815 186.892Z" fill="#DB3E3E"/>
<path d="M667.889 178.831L689.808 95.938C662.224 88.5896 634.567 83.7481 607.013 81.0091L597.871 166.374C621.139 168.612 644.532 172.676 667.889 178.831Z" fill="#DB3E3E"/>
<path d="M540.302 132.076L551.433 112.631C551.931 111.696 552.29 110.749 552.487 110.068C552.545 109.375 552.627 108.404 552.72 107.295C552.767 106.741 552.663 106.313 552.71 105.759C552.757 105.204 552.653 104.777 552.411 104.338C552.307 103.91 552.053 103.609 551.661 103.297C551.268 102.985 550.725 102.8 550.02 102.88C549.189 102.81 548.472 103.029 547.871 103.537C547.269 104.044 547.072 104.726 546.991 105.696L546.849 109.035L541.003 108.822L541.133 105.622C541.238 104.374 541.47 103.277 541.979 102.203C542.489 101.129 543.125 100.205 543.888 99.4319C544.651 98.6586 545.68 98.0472 546.697 97.5744C547.714 97.1017 548.986 96.9295 550.095 97.0229C551.631 97.0127 552.856 97.395 553.918 98.0429C554.981 98.6907 555.893 99.4655 556.516 100.356C557.127 101.384 557.6 102.401 557.911 103.684C558.222 104.967 558.256 106.226 558.277 107.624C558.196 108.594 558.264 109.437 558.067 110.119C558.009 110.812 557.962 111.366 557.765 112.048C557.58 112.591 557.383 113.272 557.198 113.815C556.874 114.346 556.526 115.154 556.04 115.951L546.853 132.209L557.436 132.541L557.223 138.387L539.823 137.759L540.302 132.076Z" fill="white"/>
<path d="M569.479 103.959L563.549 108.066L563.785 101.943L569.716 97.836L575.562 98.049L574.233 138.701L568.387 138.488L569.479 103.959Z" fill="white"/>
<path d="M478.198 138.422L466.666 139.406L466.151 133.918L471.873 104.106L478.066 103.511L471.929 133.287L477.695 132.796L476.711 121.266L482.477 120.774L483.46 132.304L486.268 132.122L486.784 137.609L483.976 137.792L484.583 143.846L478.817 144.338L478.198 138.422Z" fill="white"/>
<path d="M375.585 134.956L371.063 140.578L369.473 134.581L373.996 128.959L379.566 127.473L390.22 166.761L384.65 168.246L375.585 134.956Z" fill="white"/>
<path d="M399.039 140C400.749 139.585 401.778 138.974 402.379 138.466C402.842 137.947 402.935 136.838 402.636 135.417L401.254 130.275C401.047 129.42 400.677 128.83 400.008 128.494C399.338 128.159 398.644 128.1 397.789 128.308C396.784 128.642 396.183 129.15 395.986 129.831C395.789 130.512 395.73 131.206 395.822 131.772L396.674 134.915L391.104 136.4L390.264 133.118C389.941 131.974 389.896 130.854 389.989 129.745C390.082 128.636 390.453 127.55 391.089 126.627C391.726 125.703 392.362 124.779 393.252 124.156C394.154 123.395 395.171 122.922 396.315 122.599C397.887 122.173 399.285 122.152 400.371 122.522C401.595 122.904 402.542 123.263 403.2 123.738C403.732 124.062 404.124 124.374 404.505 124.825C404.886 125.276 405.267 125.726 405.636 126.316C406.005 126.905 406.224 127.622 406.582 128.35C406.928 129.217 407.262 130.222 407.573 131.505C407.872 132.926 408.206 133.931 408.414 134.786C408.621 135.641 408.701 136.346 408.504 137.028C408.446 137.721 408.26 138.263 407.798 138.783C407.474 139.314 406.861 139.96 406.248 140.607C407.334 140.977 408.142 141.325 408.673 141.649C409.205 141.973 409.724 142.435 410.093 143.025C410.463 143.614 410.82 144.342 411.166 145.209C411.512 146.076 411.834 147.22 412.134 148.641C412.445 149.924 412.767 151.067 412.974 151.923C413.182 152.778 413.262 153.482 413.342 154.187C413.434 154.753 413.387 155.308 413.352 155.724C413.317 156.139 413.132 156.682 412.947 157.225C412.564 158.449 411.916 159.512 410.991 160.55C410.066 161.589 408.748 162.316 407.038 162.73C406.183 162.938 405.189 163.133 404.08 163.04C402.971 162.946 402.012 162.726 400.926 162.355C399.991 161.858 399.067 161.222 398.166 160.308C397.405 159.406 396.678 158.089 396.24 156.656L395.388 153.513L400.958 152.028L401.695 154.882C401.902 155.737 402.398 156.477 403.068 156.812C403.727 157.286 404.42 157.345 405.275 157.138C406.13 156.93 406.731 156.423 407.067 155.753C407.403 155.083 407.473 154.251 407.138 153.246L405.653 147.676C405.434 146.96 405.215 146.244 404.973 145.804C404.73 145.365 404.338 145.053 403.933 144.879C403.529 144.706 402.975 144.659 402.408 144.751C401.842 144.843 400.999 144.911 400.132 145.257L399.039 140Z" fill="white"/>
<path d="M317.645 197.925L318.692 175.537C318.786 174.428 318.729 173.446 318.359 172.857C318.141 172.14 317.795 171.273 317.322 170.256C317.08 169.817 316.837 169.378 316.607 168.8C316.364 168.361 315.984 167.91 315.73 167.609C315.337 167.297 314.933 167.124 314.529 166.95C314.113 166.915 313.546 167.007 312.83 167.226C312.102 167.583 311.5 168.091 311.303 168.772C311.106 169.454 311.187 170.158 311.533 171.025L312.951 174.076L307.715 176.567L306.423 173.666C305.962 172.511 305.64 171.367 305.594 170.246C305.549 169.125 305.643 168.016 306.013 166.931C306.384 165.845 306.881 164.91 307.656 163.998C308.431 163.086 309.321 162.463 310.489 161.863C311.795 161.275 313.216 160.976 314.337 160.931C315.585 161.036 316.682 161.268 317.757 161.777C318.831 162.286 319.743 163.061 320.493 164.102C321.255 165.003 321.993 166.182 322.593 167.35C323.077 168.228 323.296 168.945 323.654 169.673C323.884 170.25 324.103 170.967 324.195 171.533C324.426 172.111 324.506 172.816 324.46 173.37C324.54 174.075 324.47 174.907 324.388 175.877L323.656 194.522L333.111 190.013L335.602 195.249L319.905 202.582L317.645 197.925Z" fill="white"/>
<path d="M231.285 226.952L229.442 233.916L225.517 229.119L227.36 222.154L231.858 218.485L257.25 250.218L252.752 253.888L231.285 226.952Z" fill="white"/>
<path d="M255.624 206.517L246.641 213.718L253.462 222.249C253.52 221.556 253.868 220.748 254.215 219.939C254.701 219.143 255.326 218.358 256.077 217.723C257.58 216.454 259.302 215.901 260.954 216.179C262.618 216.319 264.35 217.303 265.723 219.233L272.291 227.464C273.179 228.516 273.779 229.684 273.963 230.816C274.286 231.96 274.331 233.081 274.238 234.19C274.144 235.298 273.774 236.384 273.137 237.308C272.64 238.243 271.865 239.155 270.975 239.778C270.073 240.54 269.056 241.012 268.05 241.347C267.045 241.681 265.912 241.865 264.803 241.771C263.694 241.678 262.608 241.307 261.534 240.798C260.46 240.289 259.548 239.514 258.671 238.323L257.667 236.982L262.164 233.313L263.041 234.503C263.676 235.255 264.334 235.729 265.166 235.799C265.998 235.869 266.715 235.65 267.316 235.142C268.056 234.646 268.391 233.976 268.45 233.283C268.508 232.59 268.151 231.862 267.654 231.122L261.722 223.643C261.214 223.042 260.544 222.706 259.863 222.509C259.031 222.439 258.465 222.531 257.725 223.027C257.286 223.269 257.112 223.673 256.938 224.078C256.765 224.482 256.741 224.759 256.718 225.036C256.695 225.313 256.66 225.729 256.775 226.018C256.89 226.307 256.867 226.584 256.855 226.723L252.82 229.873L239.039 212.798L252.069 202.309L255.624 206.517Z" fill="white"/>
<path d="M182.533 295.293C183.759 294 184.407 292.938 184.477 292.106C184.547 291.274 184.062 290.396 183.023 289.471L179.132 285.932C178.486 285.319 177.804 285.122 177.111 285.064C176.406 285.144 175.69 285.363 175.077 286.01C174.452 286.795 174.105 287.603 174.324 288.319C174.543 289.036 174.773 289.614 175.293 290.076L177.764 292.239L173.912 296.521L171.453 294.22C170.541 293.445 169.918 292.555 169.457 291.4C168.984 290.383 168.662 289.239 168.616 288.118C168.571 286.997 168.803 285.9 169.174 284.814C169.544 283.729 170.192 282.667 170.967 281.755C172.043 280.589 173.083 279.839 174.378 279.389C175.522 279.067 176.516 278.871 177.347 278.941C177.902 278.988 178.457 279.035 179.011 279.082C179.566 279.128 180.097 279.452 180.64 279.637C181.171 279.961 181.841 280.297 182.626 280.922C183.423 281.407 184.196 282.171 185.108 282.945C186.147 283.87 187.06 284.645 187.567 285.246C188.214 285.859 188.583 286.449 188.952 287.038C189.183 287.616 189.414 288.194 189.355 288.887C189.297 289.58 189.238 290.273 189.018 291.232C190.024 290.898 190.867 290.829 191.572 290.749C192.277 290.669 192.958 290.866 193.628 291.201C194.298 291.537 194.968 291.872 195.614 292.485C196.4 293.11 197.173 293.873 198.351 294.81C199.39 295.735 200.163 296.498 200.81 297.111C201.456 297.724 201.964 298.325 202.206 298.764C202.587 299.215 202.83 299.654 203.072 300.093C203.314 300.533 203.418 300.96 203.51 301.526C203.821 302.809 203.854 304.068 203.599 305.443C203.343 306.817 202.672 308.157 201.446 309.449C200.833 310.096 200.082 310.73 199.192 311.354C198.301 311.977 197.296 312.311 196.164 312.495C195.031 312.678 193.922 312.585 192.836 312.214C191.612 311.832 190.411 311.173 189.245 310.097L186.774 307.935L190.625 303.652L192.83 305.653C193.477 306.265 194.285 306.613 194.99 306.532C195.822 306.603 196.411 306.233 197.024 305.587C197.637 304.941 197.834 304.259 197.766 303.416C197.697 302.572 197.189 301.971 196.554 301.22L192.271 297.369C191.613 296.895 191.093 296.432 190.689 296.259C190.285 296.085 189.742 295.9 189.314 296.003C188.887 296.107 188.448 296.349 187.997 296.73C187.546 297.111 186.944 297.619 186.32 298.404L182.533 295.293Z" fill="white"/>
<path d="M188.533 272.062L187.787 279.258L183.25 275.107L183.996 267.91L187.847 263.628L218.084 290.883L214.232 295.166L188.533 272.062Z" fill="white"/>
<path d="M141.027 353.785L141.165 353.796C141.189 353.519 141.212 353.242 141.386 352.838C141.559 352.434 141.733 352.029 142.196 351.51C142.82 350.725 143.572 350.09 144.45 349.606C145.329 349.121 146.322 348.926 147.154 348.996C147.709 349.042 148.125 349.078 148.529 349.251C148.933 349.425 149.476 349.61 150.146 349.946C150.816 350.281 151.474 350.756 152.41 351.253C153.333 351.889 154.396 352.537 155.712 353.486C156.763 354.272 157.687 354.908 158.345 355.383C159.003 355.857 159.522 356.319 160.042 356.782C160.423 357.233 160.815 357.545 161.058 357.984C161.3 358.423 161.542 358.863 161.785 359.302C162.373 360.608 162.533 362.017 162.405 363.542C162.288 364.928 161.744 366.418 160.795 367.734C159.847 369.05 158.783 370.078 157.477 370.666C156.171 371.254 154.749 371.553 153.363 371.436C152.808 371.389 152.254 371.343 151.838 371.308C151.422 371.273 150.879 371.087 150.348 370.763C149.817 370.439 149.147 370.104 148.489 369.63C147.83 369.155 146.907 368.519 145.706 367.86C144.655 367.073 143.858 366.587 143.211 365.974C142.553 365.5 142.034 365.038 141.514 364.575C141.133 364.124 140.741 363.812 140.36 363.361C140.118 362.922 139.737 362.471 139.356 362.02L126.904 344.08L130.572 338.665L141.027 353.785ZM148.963 355.709C148.304 355.235 147.484 355.026 146.768 355.245C146.051 355.464 145.462 355.833 144.987 356.491C144.513 357.149 144.455 357.843 144.535 358.547C144.615 359.252 145.111 359.992 145.77 360.466L151.971 364.758C152.629 365.232 153.449 365.44 154.165 365.221C154.882 365.003 155.471 364.633 155.946 363.975C156.42 363.317 156.478 362.624 156.398 361.919C156.318 361.215 155.822 360.475 155.163 360.001L148.963 355.709Z" fill="white"/>
<path d="M103.497 444.714C104.053 443.085 104.297 441.849 104.078 441.133C103.859 440.416 103.086 439.653 101.723 439.259L96.8484 437.453C96.0399 437.106 95.335 437.186 94.6185 437.405C93.8903 437.762 93.4277 438.282 93.219 439.102C92.86 440.049 92.9286 440.892 93.4365 441.493C93.9444 442.094 94.4639 442.557 95.0068 442.742L98.1255 443.843L96.1335 449.259L93.0149 448.159C91.9291 447.788 90.8667 447.14 90.0932 446.377C89.1811 445.602 88.558 444.712 88.2237 443.707C87.7509 442.69 87.567 441.557 87.5217 440.437C87.4765 439.316 87.5815 438.069 88.0908 436.995C88.6351 435.505 89.4334 434.316 90.3352 433.554C91.2371 432.792 92.1156 432.308 92.9825 431.962C93.5604 431.732 94.1266 431.64 94.6928 431.548C95.259 431.456 95.8253 431.364 96.5184 431.422C97.2116 431.481 97.8932 431.678 98.852 431.898C99.6721 432.107 100.758 432.477 101.982 432.86C103.334 433.392 104.419 433.763 105.228 434.11C106.036 434.457 106.695 434.932 107.087 435.244C107.607 435.706 107.849 436.146 108.08 436.723C108.31 437.301 108.517 438.156 108.725 439.011C109.615 438.388 110.355 437.892 110.933 437.662C111.511 437.431 112.227 437.212 112.92 437.271C113.613 437.329 114.445 437.399 115.254 437.746C116.213 437.967 117.287 438.476 118.65 438.87C119.862 439.391 120.948 439.761 121.757 440.109C122.565 440.456 123.235 440.792 123.766 441.115C124.297 441.439 124.69 441.752 125.083 442.064C125.475 442.376 125.717 442.815 126.098 443.266C126.848 444.307 127.31 445.462 127.62 446.745C127.931 448.027 127.664 449.541 127.097 451.308C126.749 452.116 126.252 453.051 125.627 453.836C125.003 454.621 124.239 455.395 123.21 456.006C122.32 456.629 121.176 456.952 119.917 456.985C118.646 457.157 117.271 456.902 115.781 456.358L112.662 455.257L114.654 449.841L117.496 450.918C118.304 451.265 119.148 451.197 119.864 450.978C120.581 450.759 121.055 450.101 121.402 449.293C121.75 448.484 121.669 447.779 121.312 447.051C120.954 446.323 120.296 445.849 119.349 445.49L113.932 443.498C113.123 443.151 112.569 443.104 112.014 443.058C111.46 443.011 111.032 443.114 110.731 443.368C110.292 443.611 109.98 444.003 109.656 444.534C109.332 445.065 108.996 445.735 108.776 446.694L103.497 444.714Z" fill="white"/>
<path d="M100.138 428.233C98.7862 427.701 97.7238 427.053 96.9503 426.29C96.0382 425.515 95.415 424.625 95.0808 423.619C94.608 422.602 94.4124 421.609 94.3788 420.349C94.3335 419.229 94.5656 418.131 94.9362 417.046C95.3069 415.96 95.9431 415.037 96.5794 414.113C97.3543 413.201 98.2445 412.578 99.123 412.094C100.14 411.621 101.146 411.287 102.405 411.253C103.526 411.208 104.774 411.313 106.125 411.846L128.614 420.021C129.965 420.554 131.028 421.202 131.801 421.965C132.713 422.74 133.336 423.63 133.67 424.635C134.143 425.652 134.339 426.646 134.373 427.905C134.418 429.026 134.186 430.123 133.815 431.208C133.444 432.294 132.808 433.218 132.172 434.141C131.397 435.053 130.507 435.676 129.628 436.161C128.611 436.634 127.606 436.968 126.346 437.001C125.225 437.047 123.978 436.941 122.626 436.409L100.138 428.233ZM124.618 430.993C125.427 431.34 126.132 431.26 126.86 430.902C127.588 430.545 128.051 430.025 128.398 429.217C128.745 428.408 128.665 427.704 128.307 426.976C127.95 426.247 127.43 425.785 126.61 425.576L104.121 417.401C103.313 417.053 102.608 417.133 101.88 417.491C101.152 417.848 100.689 418.368 100.342 419.176C99.9944 419.985 100.075 420.689 100.432 421.418C100.79 422.146 101.309 422.608 102.129 422.817L124.618 430.993Z" fill="white"/>
<path d="M74.8784 517.546C73.781 517.314 72.9725 516.967 72.1523 516.759C71.4825 516.423 70.801 516.226 70.2698 515.902C69.7385 515.578 69.346 515.266 68.9651 514.815C68.5725 514.503 68.1916 514.052 67.8224 513.462C67.0722 512.422 66.5994 511.405 66.2885 510.122C66.1163 508.851 66.0827 507.592 66.465 506.368C66.8474 505.144 67.3683 503.931 68.1432 503.019C68.9181 502.107 69.9586 501.357 71.1144 500.896C71.6923 500.666 72.2702 500.435 72.6978 500.331C73.264 500.24 73.6916 500.136 74.3965 500.056C74.9627 499.964 75.6559 500.022 76.4761 500.231C77.3079 500.301 78.128 500.509 79.2138 500.88C80.4382 501.262 81.397 501.483 82.2172 501.691C83.0373 501.9 83.7072 502.236 84.2384 502.56C84.7696 502.884 85.2891 503.346 85.67 503.797C86.0509 504.248 86.4085 504.976 86.7544 505.843C87.4943 505.347 88.0838 504.977 88.6734 504.608C89.2513 504.378 89.9562 504.298 90.661 504.217C91.3542 504.276 92.3247 504.357 93.2835 504.578C94.2423 504.798 95.617 505.053 96.9801 505.447C98.2045 505.83 99.1632 506.05 99.9717 506.397C100.792 506.606 101.462 506.942 101.993 507.265C102.524 507.589 103.067 507.775 103.321 508.075C103.714 508.388 103.967 508.688 104.348 509.139C105.11 510.041 105.722 511.069 106.16 512.502C106.609 513.797 106.481 515.321 106.063 516.961C105.646 518.602 104.975 519.941 103.923 520.83C103.009 521.73 101.83 522.468 100.824 522.802C100.246 523.033 99.8189 523.137 99.3913 523.24C98.9637 523.344 98.4091 523.297 97.7043 523.377C97.1497 523.331 96.3179 523.261 95.6364 523.064C94.8162 522.855 93.8574 522.635 92.6213 522.391C91.1196 521.985 89.8952 521.603 88.9364 521.383C87.9893 521.024 87.0305 520.803 86.511 520.341C85.8411 520.005 85.3216 519.543 84.9523 518.953C84.5714 518.502 84.2139 517.774 83.868 516.907C83.1281 517.404 82.5386 517.773 81.822 517.992C81.2441 518.222 80.5276 518.441 79.973 518.394C79.2682 518.475 78.5866 518.278 77.7548 518.207C77.0616 518.149 76.1145 517.79 74.8784 517.546ZM75.7319 505.752C74.9117 505.544 74.2069 505.624 73.6056 506.132C72.8774 506.489 72.5418 507.159 72.3448 507.84C72.1478 508.522 72.2281 509.226 72.5856 509.955C72.9432 510.683 73.6014 511.157 74.2829 511.354L80.024 512.814C80.8442 513.023 81.549 512.943 82.1503 512.435C82.8785 512.078 83.2141 511.408 83.4111 510.726C83.6081 510.045 83.5278 509.34 83.1703 508.612C82.8127 507.884 82.1545 507.41 81.473 507.213L75.7319 505.752ZM91.1646 509.844C90.3445 509.635 89.6396 509.715 89.0384 510.223C88.3102 510.581 87.9745 511.25 87.7775 511.932C87.5805 512.613 87.6608 513.318 88.0184 514.046C88.3759 514.774 89.0341 515.248 89.7156 515.445L97.5013 517.497C98.3215 517.706 99.0263 517.625 99.6276 517.118C100.356 516.76 100.691 516.09 100.888 515.409C101.085 514.728 101.005 514.023 100.648 513.295C100.29 512.567 99.6318 512.092 98.9503 511.895L91.1646 509.844Z" fill="white"/>
<path d="M80.3427 608.48C80.3558 606.667 80.0332 605.523 79.664 604.933C79.2948 604.344 78.209 603.973 76.6723 603.983L71.3573 604.094C70.5138 604.163 69.7973 604.382 69.3347 604.901C68.8721 605.421 68.5365 606.09 68.5934 607.072C68.6503 608.054 69.0079 608.782 69.6661 609.257C70.3242 609.731 71.0058 609.928 71.572 609.836L74.9227 609.839L74.987 615.708L71.6363 615.705C70.5155 615.75 69.2795 615.506 68.1937 615.136C67.1079 614.765 66.1841 614.129 65.4107 613.366C64.6372 612.603 64.014 611.712 63.5529 610.557C63.08 609.54 62.7575 608.396 62.8625 607.148C62.8523 605.612 63.1076 604.237 63.7556 603.175C64.4035 602.113 65.0281 601.328 65.6293 600.82C66.0803 600.439 66.5312 600.058 66.9705 599.816C67.4097 599.574 67.9876 599.343 68.5655 599.113C69.1434 598.882 69.9869 598.814 70.8421 598.606C71.6856 598.538 72.8064 598.493 74.0658 598.459C75.4638 598.437 76.5846 598.392 77.5551 598.474C78.3869 598.544 79.2188 598.614 79.75 598.938C80.2929 599.123 80.8124 599.586 81.3319 600.048C81.7128 600.499 82.2207 601.1 82.7052 601.979C83.2028 601.043 83.8158 600.397 84.2784 599.877C84.741 599.358 85.3305 598.989 86.0471 598.77C86.7636 598.551 87.4801 598.332 88.4623 598.275C89.4444 598.218 90.5652 598.173 92.1019 598.163C93.5 598.141 94.4821 598.084 95.4526 598.166C96.2844 598.236 97.1163 598.306 97.6708 598.353C98.2254 598.399 98.7682 598.585 99.1725 598.758C99.5767 598.932 99.981 599.105 100.512 599.429C101.575 600.077 102.475 600.991 103.214 602.17C103.952 603.349 104.251 604.77 104.377 606.595C104.434 607.577 104.213 608.536 103.993 609.495C103.761 610.592 103.263 611.527 102.5 612.301C101.864 613.224 100.974 613.847 99.8062 614.447C98.7773 615.058 97.3559 615.357 95.8192 615.368L92.4686 615.365L92.4042 609.496L95.4776 609.476C96.4598 609.419 97.1763 609.2 97.7775 608.692C98.3788 608.184 98.5758 607.503 98.6575 606.533C98.5889 605.689 98.37 604.973 97.7118 604.498C97.0536 604.024 96.3838 603.689 95.263 603.734L89.3935 603.798C88.55 603.867 87.9837 603.959 87.4175 604.051C86.9899 604.154 86.5507 604.396 86.2384 604.789C85.9261 605.181 85.7524 605.586 85.7057 606.14C85.659 606.694 85.589 607.526 85.646 608.508L80.3427 608.48Z" fill="white"/>
<path d="M98.0571 593.781L77.9733 583.574C77.0378 583.076 76.0907 582.717 75.3975 582.659C74.7043 582.601 73.7338 582.519 72.613 582.564C72.0585 582.518 71.6309 582.621 71.0647 582.713C70.4985 582.805 70.0709 582.909 69.6433 583.012C69.204 583.254 68.9034 583.508 68.5911 583.901C68.2788 584.293 68.2321 584.848 68.1738 585.541C68.2424 586.384 68.4613 587.101 68.9808 587.563C69.5004 588.026 70.1702 588.361 71.1523 588.304L74.503 588.307L74.5674 594.176L71.3553 594.185C70.0959 594.218 68.9985 593.986 67.9127 593.616C66.8269 593.245 65.9031 592.609 65.1297 591.846C64.3562 591.083 63.5944 590.181 63.1216 589.164C62.6487 588.147 62.3262 587.003 62.2926 585.744C62.2823 584.207 62.526 582.971 63.047 581.759C63.5563 580.685 64.3312 579.773 65.233 579.011C66.1349 578.249 67.2907 577.788 68.4348 577.466C69.5789 577.143 70.9887 576.983 72.2481 576.949C73.2302 576.893 74.0621 576.963 74.7553 577.021C75.4485 577.079 76.003 577.126 76.6962 577.184C77.2508 577.231 77.9323 577.428 78.6021 577.764C79.2836 577.961 79.9535 578.296 80.889 578.794L97.5082 587.034L97.2745 576.544L103.144 576.48L103.499 593.82L98.0571 593.781Z" fill="white"/>
<path d="M89.473 677.504C89.5883 677.793 89.7036 678.082 89.8072 678.509C89.9108 678.937 90.0145 679.364 90.0947 680.069C90.1517 681.051 90.07 682.021 89.5724 682.957C89.2134 683.904 88.6005 684.55 87.8489 685.185C87.5483 685.439 87.109 685.681 86.6698 685.923C86.2305 686.165 85.6643 686.257 85.0864 686.488C84.3699 686.707 83.5263 686.775 82.5325 686.971C81.5387 687.166 80.1407 687.188 78.5923 687.337C77.3212 687.509 76.2004 687.554 75.3569 687.623C74.5134 687.691 73.8202 687.633 73.127 687.575C72.5725 687.528 72.0179 687.481 71.6137 687.308C71.2094 687.134 70.6665 686.949 70.2623 686.775C68.9226 686.104 67.8835 685.179 67.1451 684C66.4066 682.821 65.8301 681.376 65.6812 679.828C65.5324 678.28 65.7994 676.767 66.332 675.416C66.8647 674.064 67.7899 673.026 68.9807 672.149C69.4199 671.906 69.8709 671.526 70.1598 671.41C70.5991 671.168 71.0383 670.926 71.6046 670.834C72.1708 670.742 72.8873 670.523 73.7308 670.455C74.5743 670.386 75.7068 670.202 76.9779 670.03C78.249 669.858 79.2311 669.801 80.063 669.871C80.9065 669.802 81.5997 669.861 82.1542 669.907C82.7088 669.954 83.2633 670.001 83.8179 670.048C84.3724 670.094 84.7767 670.268 85.3196 670.453L106.331 676.271L106.904 682.741L89.473 677.504ZM82.0523 681.067C82.8958 680.998 83.624 680.641 84.0983 679.983C84.5725 679.325 84.7695 678.643 84.6893 677.939C84.609 677.234 84.2514 676.506 83.7319 676.043C83.2124 675.581 82.4039 675.233 81.5487 675.441L74.0958 676.069C73.2523 676.138 72.5241 676.495 72.0498 677.154C71.5755 677.812 71.3785 678.493 71.4588 679.198C71.5391 679.903 71.8966 680.631 72.4162 681.093C72.9357 681.556 73.7442 681.903 74.5994 681.696L82.0523 681.067Z" fill="white"/>
<path d="M128.942 774.22L106.738 770.955C105.641 770.723 104.658 770.78 103.942 770.999C103.225 771.217 102.37 771.425 101.353 771.897C100.925 772.001 100.347 772.232 99.9082 772.474C99.469 772.716 99.0297 772.958 98.5905 773.2C98.2898 773.454 97.9776 773.847 97.9309 774.401C97.7572 774.805 97.8492 775.372 98.0681 776.088C98.414 776.955 98.7832 777.544 99.4647 777.741C100.135 778.077 100.839 777.997 101.833 777.801L105 776.672L106.913 782.138L103.885 783.279C102.729 783.74 101.597 783.924 100.488 783.83C99.3787 783.737 98.2813 783.505 97.2072 782.996C96.1331 782.486 95.348 781.862 94.4359 781.087C93.6741 780.185 93.0509 779.295 92.5897 778.14C92.0132 776.695 91.841 775.424 92.0847 774.188C92.1897 772.941 92.699 771.867 93.3353 770.943C93.9716 770.019 94.8851 769.119 95.9256 768.369C96.9661 767.619 98.1336 767.019 99.428 766.57C100.295 766.224 101.15 766.017 101.728 765.787C102.306 765.556 103.011 765.476 103.577 765.384C104.143 765.292 104.848 765.212 105.541 765.27C106.234 765.328 107.066 765.398 108.037 765.48L126.533 768.015L123.04 758.088L128.507 756.175L134.385 772.585L128.942 774.22Z" fill="white"/>
<path d="M107.948 749.979L107.936 750.118C108.202 750.28 108.328 750.43 108.571 750.869C108.825 751.17 109.055 751.748 109.286 752.326C109.62 753.331 109.677 754.313 109.595 755.283C109.375 756.242 109.016 757.189 108.542 757.847C108.229 758.24 107.929 758.493 107.616 758.886C107.316 759.14 106.726 759.509 106.148 759.74C105.559 760.109 104.692 760.455 103.825 760.8C102.82 761.135 101.664 761.596 100.08 762.16C98.786 762.61 97.7805 762.944 96.9254 763.151C96.0702 763.358 95.3536 763.577 94.7874 763.669C94.2212 763.761 93.655 763.853 93.2391 763.818C92.8231 763.783 92.2686 763.736 91.714 763.689C90.3393 763.434 88.9996 762.763 87.9605 761.838C86.9214 760.913 86.056 759.583 85.4796 758.139C84.9031 756.694 84.7542 755.146 85.0096 753.772C85.2649 752.397 85.7976 751.046 86.7228 750.007C87.0351 749.614 87.3474 749.222 87.7866 748.98C88.0872 748.726 88.5382 748.345 89.1161 748.115C89.694 747.884 90.2835 747.515 91.1504 747.169C91.8786 746.812 93.0227 746.489 94.1785 746.028C95.3343 745.567 96.3398 745.233 97.195 745.026C98.0502 744.818 98.628 744.588 99.1943 744.496C99.7605 744.404 100.327 744.312 100.754 744.208C101.321 744.116 101.736 744.152 102.291 744.198L124.186 744.506L126.318 750.689L107.948 749.979ZM101.635 755.311C102.501 754.965 102.964 754.446 103.3 753.776C103.635 753.106 103.694 752.413 103.336 751.685C102.979 750.957 102.609 750.367 101.939 750.032C101.27 749.696 100.438 749.626 99.7095 749.984L92.6478 752.6C91.7809 752.946 91.3183 753.465 90.9827 754.135C90.647 754.805 90.5887 755.498 90.9463 756.226C91.1652 756.942 91.673 757.544 92.3429 757.879C93.0127 758.215 93.8446 758.285 94.5728 757.927L101.635 755.311Z" fill="white"/>
<path d="M135.818 855.069L142.228 858.54L136.703 861.146L130.293 857.675L127.802 852.44L164.581 835.155L167.073 840.39L135.818 855.069Z" fill="white"/>
<path d="M133.714 840.232C132.696 840.705 131.83 841.051 131.113 841.269C130.396 841.488 129.68 841.707 129.114 841.799C128.548 841.891 127.993 841.844 127.438 841.798C126.884 841.751 126.329 841.704 125.786 841.519C124.55 841.275 123.476 840.766 122.426 839.979C121.375 839.193 120.625 838.153 120.163 836.997C119.564 835.83 119.253 834.547 119.358 833.299C119.324 832.04 119.707 830.816 120.216 829.742C120.54 829.211 120.864 828.68 121.037 828.276C121.35 827.883 121.674 827.352 122.125 826.971C122.576 826.59 123.165 826.221 123.766 825.713C124.495 825.356 125.234 824.86 126.252 824.387C127.407 823.926 128.286 823.442 129.014 823.084C129.742 822.727 130.459 822.508 131.164 822.427C131.869 822.347 132.423 822.394 133.116 822.452C133.798 822.649 134.479 822.846 135.288 823.193C135.497 822.373 135.694 821.692 136.029 821.022C136.365 820.353 136.827 819.833 137.417 819.464C138.018 818.956 138.758 818.46 139.637 817.976C140.515 817.491 141.683 816.891 143.127 816.315C144.295 815.715 145.162 815.37 146.029 815.024C146.757 814.666 147.473 814.447 148.04 814.356C148.606 814.264 149.172 814.172 149.6 814.068C150.015 814.103 150.57 814.15 151.125 814.196C152.234 814.29 153.446 814.811 154.636 815.609C155.825 816.407 156.702 817.598 157.417 819.054C158.121 820.649 158.42 822.07 158.303 823.456C158.187 824.842 157.804 826.067 157.168 826.99C156.844 827.521 156.532 827.914 156.358 828.318C156.046 828.711 155.734 829.103 155.144 829.472C154.693 829.853 153.965 830.211 153.375 830.58C152.647 830.937 151.769 831.422 150.601 832.021C149.295 832.609 147.989 833.197 147.11 833.682C146.093 834.155 145.238 834.362 144.533 834.442C143.828 834.522 143.123 834.603 142.442 834.406C141.76 834.209 141.079 834.012 140.27 833.664C140.062 834.484 139.714 835.293 139.529 835.836C139.205 836.367 138.881 836.898 138.28 837.406C137.817 837.925 137.089 838.283 136.361 838.64C135.76 839.148 134.742 839.621 133.714 840.232ZM126.697 830.707C125.969 831.064 125.506 831.584 125.159 832.392C124.95 833.212 124.892 833.905 125.261 834.495C125.618 835.223 126.138 835.685 126.82 835.882C127.628 836.229 128.333 836.149 129.061 835.792L134.436 833.313C135.164 832.955 135.627 832.436 135.974 831.627C136.183 830.807 136.241 830.114 135.872 829.525C135.514 828.797 134.995 828.334 134.313 828.137C133.643 827.801 132.8 827.87 132.072 828.228L126.697 830.707ZM141.238 823.834C140.509 824.192 140.047 824.711 139.7 825.519C139.491 826.339 139.433 827.033 139.802 827.622C140.159 828.35 140.679 828.813 141.36 829.01C142.169 829.357 142.874 829.277 143.602 828.919L150.872 825.483C151.601 825.125 152.063 824.606 152.41 823.798C152.619 822.978 152.677 822.285 152.308 821.695C151.951 820.967 151.431 820.504 150.75 820.307C150.08 819.972 149.236 820.04 148.508 820.398L141.238 823.834Z" fill="white"/>
<path d="M216.955 909.509L194.929 914.076C193.797 914.26 192.93 914.606 192.34 914.975C191.751 915.344 190.999 915.979 190.109 916.602C189.67 916.844 189.358 917.237 188.907 917.618C188.456 917.999 188.143 918.391 187.97 918.795C187.796 919.199 187.622 919.604 187.714 920.17C187.679 920.586 188.049 921.175 188.418 921.765C188.926 922.366 189.584 922.84 190.277 922.898C190.97 922.957 191.687 922.738 192.438 922.103L194.994 919.945L198.664 924.442L196.259 926.473C195.357 927.235 194.328 927.846 193.184 928.169C192.04 928.491 190.908 928.675 189.798 928.582C188.689 928.488 187.592 928.256 186.53 927.608C185.455 927.099 184.543 926.324 183.781 925.423C182.766 924.22 182.166 923.053 181.843 921.909C181.521 920.765 181.626 919.517 181.858 918.42C182.09 917.323 182.611 916.11 183.386 915.198C184.172 914.148 184.947 913.236 185.999 912.347C186.751 911.712 187.352 911.205 187.942 910.836C188.531 910.466 188.982 910.086 189.56 909.855C190.138 909.624 190.728 909.255 191.294 909.163C191.872 908.933 192.727 908.726 193.721 908.53L211.933 904.48L205.216 896.375L209.714 892.706L220.875 906.07L216.955 909.509Z" fill="white"/>
<path d="M173.22 903.317L177.272 908.265L180.879 905.218L184.18 909.126L176.376 915.589L165.214 902.224L169.712 898.555L202.78 883.889L206.705 888.686L173.22 903.317Z" fill="white"/>
<path d="M236.85 970.099L241.352 974.667L244.706 971.319L248.307 974.973L241.138 982.187L228.762 969.977L232.879 965.856L264.529 948.139L268.904 952.556L236.85 970.099Z" fill="white"/>
<path d="M342.942 1010.16L323.683 1021.66C322.654 1022.27 322.053 1022.78 321.579 1023.44C321.105 1024.09 320.63 1024.75 319.994 1025.68C319.682 1026.07 319.496 1026.61 319.184 1027C318.86 1027.53 318.825 1027.95 318.652 1028.35C318.617 1028.77 318.582 1029.19 318.824 1029.63C319.066 1030.06 319.447 1030.52 319.978 1030.84C320.775 1031.33 321.468 1031.38 322.173 1031.3C322.89 1031.08 323.479 1030.72 323.965 1029.92L325.735 1027.14L330.643 1030.2L329.012 1033C328.364 1034.06 327.6 1034.83 326.699 1035.59C325.808 1036.22 324.791 1036.69 323.647 1037.01C322.503 1037.33 321.382 1037.38 320.285 1037.15C319.176 1037.05 318.102 1036.54 317.027 1036.04C315.699 1035.23 314.799 1034.31 314.188 1033.28C313.576 1032.26 313.115 1031.1 313.07 1029.98C313.024 1028.86 313.129 1027.61 313.512 1026.39C313.894 1025.16 314.415 1023.95 315.075 1022.75C315.561 1021.95 316.046 1021.16 316.37 1020.62C316.694 1020.09 317.157 1019.57 317.62 1019.05C318.082 1018.53 318.533 1018.15 319.123 1017.78C319.712 1017.42 320.314 1016.91 321.192 1016.42L337.075 1006.87L328.045 1001.36L331.111 996.458L345.985 1005.53L342.942 1010.16Z" fill="white"/>
<path d="M308.049 1010.01L308.061 1009.87C307.784 1009.85 307.506 1009.82 307.09 1009.79C306.686 1009.61 306.282 1009.44 305.612 1009.11C304.677 1008.61 304.042 1007.86 303.557 1006.98C303.073 1006.1 302.865 1005.24 302.808 1004.26C302.855 1003.71 302.89 1003.29 302.925 1002.88C302.96 1002.46 303.146 1001.92 303.481 1001.25C303.817 1000.58 304.152 999.908 304.65 998.973C305.148 998.038 305.796 996.975 306.617 995.509C307.277 994.308 307.913 993.384 308.387 992.726C308.862 992.068 309.336 991.41 309.648 991.018C310.111 990.498 310.411 990.244 310.712 989.991C311.013 989.737 311.452 989.494 311.891 989.252C313.209 988.525 314.63 988.226 316.017 988.343C317.403 988.46 318.905 988.865 320.233 989.675C321.561 990.485 322.588 991.549 323.315 992.867C324.042 994.184 324.353 995.467 324.375 996.865C324.328 997.419 324.42 997.985 324.246 998.389C324.211 998.805 324.026 999.348 323.841 999.891C323.655 1000.43 323.32 1001.1 322.834 1001.9C322.348 1002.7 321.85 1003.63 321.202 1004.69C320.554 1005.76 319.918 1006.68 319.582 1007.35C319.108 1008.01 318.645 1008.53 318.321 1009.06C317.998 1009.59 317.547 1009.97 317.246 1010.22C316.795 1010.61 316.494 1010.86 316.043 1011.24L298.851 1024.73L293.273 1021.33L308.049 1010.01ZM309.57 1001.9C309.084 1002.7 309.025 1003.39 309.244 1004.11C309.463 1004.82 309.832 1005.41 310.491 1005.89C311.16 1006.22 311.842 1006.42 312.558 1006.2C313.275 1005.98 313.865 1005.61 314.351 1004.82L318.238 998.442C318.724 997.645 318.782 996.952 318.563 996.236C318.345 995.519 317.975 994.93 317.317 994.456C316.647 994.12 315.966 993.923 315.249 994.142C314.533 994.361 313.943 994.73 313.457 995.527L309.57 1001.9Z" fill="white"/>
<path d="M388.85 1058.56L395.957 1057.06L393.387 1062.71L386.28 1064.2L381.036 1061.81L398.11 1024.85L403.353 1027.25L388.85 1058.56Z" fill="white"/>
<path d="M497.401 1057.77L483.359 1075.3C482.584 1076.21 482.237 1077.02 482.04 1077.7C481.843 1078.38 481.623 1079.34 481.391 1080.44C481.344 1080.99 481.17 1081.39 481.124 1081.95C481.077 1082.5 481.03 1083.06 481.134 1083.49C481.238 1083.91 481.48 1084.35 481.734 1084.65C482.126 1084.97 482.519 1085.28 483.351 1085.35C484.171 1085.56 484.887 1085.34 485.477 1084.97C486.067 1084.6 486.402 1083.93 486.623 1082.97L487.319 1079.68L493.095 1080.72L492.549 1083.89C492.305 1085.12 491.935 1086.21 491.16 1087.12C490.524 1088.05 489.76 1088.82 488.858 1089.58C487.968 1090.2 486.951 1090.68 485.807 1091C484.663 1091.32 483.554 1091.23 482.306 1091.12C480.793 1090.86 479.58 1090.34 478.668 1089.56C477.756 1088.79 476.994 1087.88 476.382 1086.86C475.91 1085.84 475.599 1084.56 475.415 1083.42C475.381 1082.16 475.348 1080.9 475.603 1079.53C475.823 1078.57 476.032 1077.75 476.09 1077.06C476.287 1076.38 476.473 1075.83 476.67 1075.15C476.855 1074.61 477.179 1074.08 477.515 1073.41C477.839 1072.88 478.451 1072.23 478.937 1071.43L490.504 1056.77L480.199 1054.79L481.244 1049.01L498.284 1052.26L497.401 1057.77Z" fill="white"/>
<path d="M466.441 1052.38L477.843 1054.6L476.834 1059.96L463.108 1087L457.066 1085.79L471.208 1058.79L465.57 1057.75L463.354 1069.15L457.578 1068.11L459.794 1056.71L457.045 1056.2L458.055 1050.84L460.804 1051.35L461.999 1045.45L467.775 1046.49L466.441 1052.38Z" fill="white"/>
<path d="M571.752 1088.48L577.555 1084.22L577.596 1090.37L571.793 1094.62L565.923 1094.69L565.854 1054.06L571.723 1053.99L571.752 1088.48Z" fill="white"/>
<path d="M545.868 1089.1L552.292 1089.08L552.273 1084.33L557.438 1084.35L557.418 1094.54L540.098 1094.61L540.034 1088.74L549.954 1053.84L556.1 1053.8L545.868 1089.1Z" fill="white"/>
<path d="M659.824 1050.67L652.457 1071.82C652.087 1072.91 651.878 1073.73 651.946 1074.57C652.027 1075.28 652.084 1076.26 652.268 1077.39C652.371 1077.82 652.463 1078.39 652.555 1078.95C652.647 1079.52 652.889 1079.96 653.132 1080.4C653.374 1080.84 653.628 1081.14 654.171 1081.32C654.575 1081.49 655.129 1081.54 655.834 1081.46C656.689 1081.25 657.406 1081.04 657.742 1080.37C658.204 1079.85 658.274 1079.01 658.206 1078.17L657.642 1074.91L663.443 1074.01L663.88 1077.11C664.064 1078.25 663.958 1079.49 663.726 1080.59C663.494 1081.69 662.985 1082.76 662.349 1083.69C661.713 1084.61 660.949 1085.38 659.921 1085.99C658.892 1086.6 657.875 1087.08 656.603 1087.25C655.043 1087.54 653.796 1087.43 652.571 1087.05C651.347 1086.67 650.423 1086.03 649.511 1085.26C648.599 1084.48 647.987 1083.45 647.526 1082.3C647.065 1081.14 646.616 1079.85 646.443 1078.58C646.248 1077.58 646.179 1076.74 646.087 1076.17C646.007 1075.47 646.054 1074.91 645.973 1074.21C646.02 1073.65 646.078 1072.96 646.275 1072.28C646.472 1071.6 646.681 1070.78 647.028 1069.97L652.982 1052.32L642.651 1053.97L641.744 1048.17L658.857 1045.56L659.824 1050.67Z" fill="white"/>
<path d="M638.745 1053.91L631.379 1075.07C631.008 1076.16 630.8 1076.98 630.868 1077.82C630.949 1078.52 631.005 1079.51 631.189 1080.64C631.293 1081.07 631.385 1081.63 631.477 1082.2C631.569 1082.76 631.811 1083.2 632.053 1083.64C632.296 1084.08 632.55 1084.38 633.092 1084.57C633.497 1084.74 634.051 1084.79 634.756 1084.71C635.6 1084.64 636.328 1084.28 636.663 1083.61C637.126 1083.09 637.196 1082.26 637.127 1081.42L636.564 1078.16L642.365 1077.25L642.801 1080.36C642.974 1081.63 642.88 1082.74 642.648 1083.84C642.416 1084.93 641.907 1086.01 641.271 1086.93C640.634 1087.85 639.871 1088.63 638.842 1089.24C637.814 1089.85 636.796 1090.32 635.525 1090.5C633.965 1090.78 632.717 1090.68 631.493 1090.3C630.269 1089.91 629.345 1089.28 628.433 1088.5C627.521 1087.73 626.909 1086.7 626.448 1085.54C625.987 1084.39 625.537 1083.09 625.365 1081.82C625.17 1080.83 625.101 1079.99 625.009 1079.42C624.929 1078.71 624.975 1078.16 624.895 1077.46C624.942 1076.9 625 1076.21 625.197 1075.53C625.394 1074.84 625.603 1074.02 625.95 1073.22L631.904 1055.57L621.573 1057.21L620.665 1051.41L637.779 1048.81L638.745 1053.91Z" fill="white"/>
<path d="M738.723 1055.49L742.98 1049.7L744.858 1055.59L740.601 1061.37L735.008 1063.13L723.059 1024.29L728.653 1022.53L738.723 1055.49Z" fill="white"/>
<path d="M711.481 1045.66L711.62 1045.67C711.782 1045.4 712.071 1045.29 712.372 1045.03C712.672 1044.78 713.238 1044.69 713.816 1044.46C714.822 1044.12 715.804 1044.07 716.763 1044.29C717.721 1044.51 718.53 1044.85 719.315 1045.48C719.708 1045.79 719.962 1046.09 720.216 1046.39C720.458 1046.83 720.839 1047.28 721.069 1047.86C721.3 1048.44 721.646 1049.3 721.98 1050.31C722.314 1051.32 722.764 1052.61 723.202 1054.04C723.651 1055.34 723.847 1056.33 724.054 1057.19C724.261 1058.04 724.48 1058.76 724.572 1059.32C724.664 1059.89 724.617 1060.44 724.582 1060.86C724.547 1061.28 724.501 1061.83 724.315 1062.37C723.921 1063.74 723.25 1065.08 722.186 1066.1C721.122 1067.13 719.943 1067.87 718.371 1068.29C716.8 1068.72 715.39 1068.88 714.027 1068.49C712.652 1068.23 711.312 1067.56 710.273 1066.63C709.881 1066.32 709.5 1065.87 709.246 1065.57C708.992 1065.27 708.611 1064.82 708.381 1064.24C708.15 1063.66 707.781 1063.07 707.574 1062.22C707.228 1061.35 706.893 1060.35 706.583 1059.06C706.26 1057.92 705.926 1056.92 705.719 1056.06C705.511 1055.21 705.419 1054.64 705.339 1053.93C705.247 1053.37 705.155 1052.8 705.202 1052.25C705.249 1051.69 705.145 1051.27 705.192 1050.71L706.47 1028.9L712.641 1026.91L711.481 1045.66ZM716.525 1052.08C716.318 1051.23 715.81 1050.63 715.14 1050.29C714.47 1049.96 713.777 1049.9 713.06 1050.12C712.344 1050.34 711.743 1050.84 711.407 1051.51C711.071 1052.18 711.001 1053.02 711.22 1053.73L713.409 1060.9C713.617 1061.75 714.125 1062.35 714.794 1062.69C715.464 1063.02 716.157 1063.08 716.874 1062.86C717.591 1062.64 718.192 1062.14 718.527 1061.47C718.863 1060.8 718.933 1059.97 718.714 1059.25L716.525 1052.08Z" fill="white"/>
<path d="M812.008 1007.49C810.54 1008.34 809.626 1009.24 809.152 1009.9C808.816 1010.57 809.012 1011.56 809.738 1012.88L812.427 1017.44C812.784 1018.16 813.442 1018.64 814.124 1018.84C814.805 1019.03 815.51 1018.95 816.389 1018.47C817.267 1017.98 817.742 1017.33 817.812 1016.49C817.882 1015.66 817.651 1015.08 817.421 1014.51L815.701 1011.71L820.695 1008.78L822.403 1011.71C823.014 1012.74 823.348 1013.75 823.521 1015.02C823.705 1016.15 823.611 1017.26 823.24 1018.35C822.87 1019.43 822.511 1020.38 821.736 1021.29C821.1 1022.21 820.198 1022.98 819.169 1023.59C817.84 1024.45 816.557 1024.76 815.297 1024.8C814.038 1024.83 813.079 1024.61 812.259 1024.4C811.716 1024.22 811.173 1024.03 810.642 1023.71C810.111 1023.38 809.718 1023.07 809.199 1022.61C808.679 1022.15 808.171 1021.55 807.675 1020.81C807.179 1020.07 806.556 1019.18 805.817 1018C805.079 1016.82 804.606 1015.8 804.11 1015.06C803.752 1014.33 803.395 1013.6 803.314 1012.9C803.222 1012.33 803.281 1011.64 803.466 1011.1C803.651 1010.55 803.999 1009.75 804.485 1008.95C803.376 1008.86 802.544 1008.79 801.862 1008.59C801.181 1008.39 800.649 1008.07 800.13 1007.61C799.61 1007.14 799.103 1006.54 798.606 1005.8C798.11 1005.06 797.499 1004.03 796.772 1002.72C796.033 1001.54 795.549 1000.66 795.203 999.792C794.845 999.064 794.488 998.336 794.257 997.758C794.027 997.18 793.935 996.614 793.831 996.187C793.728 995.759 793.774 995.205 793.821 994.65C793.926 993.403 794.308 992.178 794.829 990.966C795.489 989.765 796.553 988.738 798.033 987.745C798.772 987.249 799.778 986.915 800.783 986.581C801.789 986.247 802.91 986.202 804.007 986.434C805.104 986.666 806.19 987.036 807.114 987.673C808.038 988.309 809.065 989.372 809.931 990.702L811.65 993.499L806.656 996.429L805.064 993.782C804.568 993.042 804.06 992.441 803.24 992.232C802.558 992.035 801.715 992.104 800.975 992.6C800.235 993.096 799.772 993.616 799.702 994.447C799.493 995.267 799.712 995.984 800.197 996.862L803.127 1001.86C803.485 1002.58 803.866 1003.03 804.247 1003.49C804.628 1003.94 805.032 1004.11 805.448 1004.14C805.864 1004.18 806.43 1004.09 806.996 1004C807.574 1003.77 808.302 1003.41 809.042 1002.91L812.008 1007.49Z" fill="white"/>
<path d="M781.928 1004.96L791.916 999.096L794.731 1003.8L802.447 1033.21L797.153 1036.39L789.725 1006.87L784.732 1009.8L790.592 1019.79L785.599 1022.71L779.738 1012.73L777.379 1014.21L774.564 1009.5L776.923 1008.02L773.865 1002.88L778.859 999.951L781.928 1004.96Z" fill="white"/>
<path d="M884.752 962.802L886.734 955.849L890.519 960.635L888.538 967.588L883.901 971.246L858.81 939.258L863.446 935.6L884.752 962.802Z" fill="white"/>
<path d="M868.012 975.909L869.993 968.956L873.779 973.742L871.797 980.695L867.161 984.353L841.931 952.354L846.567 948.696L868.012 975.909Z" fill="white"/>
<path d="M944.976 900.867L945.444 893.647L950.132 897.671L949.663 904.891L945.939 909.324L914.777 883.108L918.501 878.675L944.976 900.867Z" fill="white"/>
<path d="M921.893 911.345L921.754 911.334C921.731 911.611 921.708 911.888 921.534 912.292C921.36 912.696 921.048 913.089 920.585 913.608C919.961 914.393 919.071 915.016 918.204 915.362C917.198 915.696 916.343 915.904 915.384 915.683C914.83 915.637 914.425 915.463 914.021 915.289C913.617 915.116 913.074 914.93 912.555 914.468C912.023 914.144 911.227 913.658 910.453 912.895C909.668 912.27 908.629 911.345 907.312 910.397C906.273 909.472 905.488 908.847 904.842 908.234C904.195 907.621 903.676 907.159 903.295 906.708C902.914 906.257 902.672 905.818 902.429 905.379C902.187 904.939 902.084 904.512 901.841 904.073C901.403 902.64 901.243 901.23 901.637 899.867C901.892 898.493 902.563 897.153 903.651 895.849C904.726 894.683 905.917 893.806 907.223 893.218C908.518 892.769 909.927 892.608 911.314 892.725C911.868 892.772 912.411 892.957 912.827 892.992C913.231 893.166 913.774 893.351 914.305 893.675C914.837 893.999 915.368 894.323 916.153 894.947C916.811 895.421 917.723 896.196 918.774 896.983C919.686 897.758 920.46 898.521 921.118 898.995C921.776 899.469 922.284 900.07 922.665 900.521C923.046 900.972 923.426 901.423 923.669 901.862C923.911 902.301 924.153 902.741 924.534 903.192L935.217 922.239L931.03 927.192L921.893 911.345ZM914.154 908.739C914.8 909.352 915.482 909.549 916.325 909.48C917.03 909.4 917.759 909.043 918.221 908.523C918.684 908.004 918.881 907.322 918.951 906.491C918.882 905.647 918.513 905.058 917.866 904.445L912.128 899.634C911.482 899.021 910.8 898.824 909.957 898.893C909.252 898.973 908.524 899.331 908.061 899.85C907.598 900.369 907.401 901.051 907.331 901.883C907.4 902.726 907.769 903.315 908.416 903.928L914.154 908.739Z" fill="white"/>
<path d="M971.189 810.1L981.513 830.095C981.986 831.112 982.621 831.863 983.14 832.326C983.66 832.788 984.445 833.413 985.369 834.049C985.761 834.361 986.154 834.674 986.697 834.859C987.228 835.183 987.632 835.357 988.048 835.392C988.464 835.427 988.88 835.462 989.446 835.37C989.874 835.266 990.325 834.885 990.799 834.227C991.273 833.569 991.482 832.749 991.402 832.044C991.321 831.34 990.814 830.738 990.028 830.114L987.257 828.205L990.589 823.46L993.233 825.218C994.295 825.866 995.057 826.768 995.669 827.797C996.28 828.825 996.753 829.842 996.937 830.975C997.121 832.107 997.166 833.228 996.934 834.325C996.702 835.422 996.331 836.508 995.545 837.558C994.747 838.748 993.683 839.775 992.666 840.248C991.637 840.859 990.493 841.181 989.233 841.215C988.112 841.26 986.876 841.017 985.652 840.634C984.428 840.252 983.365 839.604 982.176 838.806C981.391 838.181 980.732 837.707 980.201 837.383C979.682 836.921 979.15 836.597 978.77 836.146C978.389 835.695 978.008 835.244 977.639 834.655C977.269 834.065 976.912 833.337 976.427 832.459L967.764 815.954L961.737 824.521L956.991 821.19L966.848 806.943L971.189 810.1Z" fill="white"/>
<path d="M981.147 842.767C982.337 843.565 983.098 844.467 983.71 845.495C984.321 846.524 984.656 847.529 984.84 848.662C985.023 849.794 984.93 850.903 984.698 852C984.466 853.098 983.968 854.033 983.321 855.095C982.684 856.019 981.921 856.792 980.892 857.403C980.002 858.027 978.985 858.499 977.852 858.683C976.72 858.867 975.599 858.912 974.502 858.68C973.404 858.448 972.192 857.927 971.141 857.141L951.487 843.48C950.298 842.682 949.536 841.78 948.925 840.752C948.313 839.723 947.979 838.717 947.795 837.585C947.611 836.453 947.705 835.344 947.937 834.247C948.169 833.149 948.666 832.214 949.314 831.152C949.95 830.228 950.714 829.455 951.743 828.843C952.633 828.22 953.65 827.748 954.782 827.564C955.915 827.38 957.036 827.335 958.133 827.567C959.231 827.799 960.443 828.32 961.494 829.106L981.147 842.767ZM958.151 833.99C957.492 833.516 956.672 833.307 955.967 833.387C955.263 833.468 954.523 833.964 954.048 834.622C953.574 835.28 953.377 835.961 953.584 836.816C953.803 837.533 954.173 838.122 954.831 838.596L974.484 852.257C975.142 852.731 975.824 852.928 976.667 852.86C977.372 852.779 978.112 852.283 978.586 851.625C979.061 850.967 979.258 850.286 979.05 849.431C978.831 848.714 978.462 848.125 977.804 847.651L958.151 833.99Z" fill="white"/>
<path d="M1025.41 753.103L1023.92 745.997L1029.56 748.567L1031.06 755.673L1028.66 760.916L991.705 743.844L994.101 738.601L1025.41 753.103Z" fill="white"/>
<path d="M989.215 763.46L994.146 752.986L999.124 755.22L1022.03 775.018L1019.46 780.665L996.727 760.463L994.331 765.706L1004.81 770.636L1002.41 775.879L991.935 770.949L990.743 773.501L985.765 771.267L986.957 768.715L981.448 766.157L983.844 760.914L989.215 763.46Z" fill="white"/>
<path d="M1020.38 657.05L1037.44 671.609C1038.36 672.384 1039.01 672.858 1039.83 673.067C1040.52 673.264 1041.47 673.484 1042.56 673.855C1043.11 673.902 1043.52 674.075 1044.07 674.122C1044.63 674.169 1045.18 674.215 1045.61 674.112C1046.04 674.008 1046.47 673.905 1046.78 673.512C1047.08 673.258 1047.4 672.727 1047.6 672.046C1047.81 671.226 1047.73 670.521 1047.37 669.793C1047 669.203 1046.34 668.729 1045.38 668.509L1042.09 667.813L1043.41 662.061L1046.57 662.745C1047.8 662.989 1048.88 663.498 1049.8 664.134C1050.73 664.77 1051.49 665.672 1052.11 666.562C1052.73 667.452 1053.19 668.608 1053.38 669.74C1053.56 670.873 1053.61 671.993 1053.36 673.229C1053.1 674.742 1052.44 675.943 1051.66 676.855C1050.89 677.767 1049.99 678.529 1048.83 678.99C1047.81 679.462 1046.53 679.773 1045.27 679.807C1044.01 679.84 1042.76 679.735 1041.39 679.48C1040.43 679.26 1039.61 679.051 1038.93 678.854C1038.25 678.657 1037.7 678.472 1037.17 678.148C1036.63 677.962 1036.1 677.638 1035.58 677.176C1035.05 676.852 1034.4 676.239 1033.62 675.615L1019.4 663.669L1017.14 673.948L1011.39 672.626L1015.19 655.636L1020.38 657.05Z" fill="white"/>
<path d="M1039.68 683.104C1040.78 683.336 1041.74 683.556 1042.41 683.892C1043.09 684.089 1043.76 684.424 1044.29 684.748C1044.82 685.072 1045.22 685.385 1045.61 685.697C1046 686.009 1046.38 686.46 1046.76 686.911C1047.53 687.813 1048.13 688.98 1048.44 690.263C1048.75 691.545 1048.78 692.804 1048.4 694.029C1048.14 695.403 1047.5 696.465 1046.71 697.516C1045.92 698.567 1045.02 699.328 1043.86 699.789C1043.29 700.02 1042.71 700.25 1042.27 700.493C1041.7 700.585 1041.28 700.688 1040.57 700.768C1040 700.86 1039.31 700.802 1038.48 700.732C1037.65 700.662 1036.83 700.453 1035.73 700.221C1034.49 699.977 1033.54 699.757 1032.72 699.548C1031.9 699.34 1031.23 699.004 1030.56 698.669C1030.02 698.345 1029.5 697.882 1028.99 697.42C1028.6 696.969 1028.11 696.229 1027.75 695.501C1027.15 696.009 1026.41 696.505 1025.83 696.735C1025.25 696.966 1024.54 697.185 1023.84 697.126C1023.14 697.206 1022.17 697.125 1021.21 696.904C1020.25 696.684 1018.88 696.429 1017.36 696.162C1016.13 695.918 1015.17 695.698 1014.36 695.35C1013.54 695.142 1012.87 694.806 1012.33 694.621C1011.78 694.436 1011.25 694.112 1010.86 693.799C1010.47 693.487 1010.07 693.175 1009.69 692.724C1008.93 691.822 1008.18 690.782 1007.87 689.499C1007.42 688.205 1007.41 686.669 1007.83 685.028C1008.25 683.388 1008.92 682.049 1009.84 681.01C1010.77 679.971 1011.8 679.36 1012.95 678.899C1013.53 678.668 1013.96 678.564 1014.39 678.461C1014.81 678.357 1015.38 678.265 1015.93 678.312C1016.49 678.359 1017.32 678.429 1018.15 678.499C1018.98 678.569 1019.94 678.789 1021.18 679.033C1022.69 679.3 1023.92 679.682 1024.88 679.903C1025.83 680.123 1026.78 680.482 1027.45 680.817C1028.12 681.153 1028.64 681.616 1029.16 682.078C1029.54 682.529 1030.04 683.269 1030.39 683.997C1031.13 683.501 1031.74 682.993 1032.31 682.762C1032.89 682.532 1033.47 682.301 1034.17 682.221C1034.88 682.141 1035.57 682.199 1036.39 682.408C1037.49 682.64 1038.45 682.86 1039.68 683.104ZM1023.77 691.396C1024.59 691.605 1025.3 691.386 1025.89 691.017C1026.5 690.509 1026.96 689.99 1027.15 689.308C1027.35 688.627 1027.13 687.91 1026.78 687.182C1026.42 686.454 1025.75 686.118 1024.93 685.91L1017.12 684.135C1016.3 683.927 1015.58 684.146 1014.99 684.515C1014.25 685.011 1013.93 685.542 1013.73 686.224C1013.53 686.905 1013.75 687.621 1014.11 688.349C1014.47 689.078 1015.14 689.413 1015.96 689.622L1023.77 691.396ZM1039.39 694.945C1040.21 695.154 1040.92 694.935 1041.51 694.566C1042.11 694.058 1042.58 693.538 1042.77 692.857C1042.97 692.175 1042.75 691.459 1042.39 690.731C1042.04 690.003 1041.37 689.667 1040.55 689.458L1034.79 688.137C1033.97 687.928 1033.26 688.147 1032.67 688.516C1031.93 689.012 1031.6 689.543 1031.41 690.225C1031.21 690.906 1031.43 691.622 1031.79 692.351C1032.14 693.079 1032.81 693.414 1033.63 693.623L1039.39 694.945Z" fill="white"/>
<path d="M1052.57 584.793L1048.76 578.609L1054.86 579.123L1058.67 585.307L1058.18 591.129L1017.7 587.72L1018.19 581.898L1052.57 584.793Z" fill="white"/>
<path d="M1022.39 596.641L1041.33 608.845C1042.26 609.481 1043.06 609.829 1043.88 610.037C1044.57 610.234 1045.54 610.316 1046.65 610.409C1047.2 610.456 1047.62 610.491 1048.17 610.538C1048.72 610.585 1049.15 610.481 1049.58 610.377C1050.01 610.274 1050.45 610.031 1050.76 609.639C1051.07 609.246 1051.26 608.704 1051.31 608.011C1051.38 607.179 1051.17 606.462 1050.8 605.873C1050.29 605.272 1049.62 604.936 1048.65 604.854L1045.32 604.574L1045.81 598.752L1049 599.021C1050.25 599.126 1051.33 599.496 1052.41 600.006C1053.48 600.515 1054.26 601.278 1055.03 602.041C1055.79 602.943 1056.28 603.821 1056.74 604.977C1057.06 606.121 1057.24 607.253 1057.14 608.501C1057.01 610.026 1056.63 611.25 1055.98 612.312C1055.33 613.374 1054.57 614.148 1053.54 614.759C1052.51 615.371 1051.35 615.832 1050.22 616.015C1048.95 616.188 1047.69 616.221 1046.31 616.104C1045.33 616.023 1044.5 615.953 1043.81 615.894C1043.12 615.836 1042.57 615.651 1041.89 615.454C1041.35 615.268 1040.67 615.071 1040.14 614.747C1039.61 614.423 1038.81 613.938 1038.01 613.452L1022.24 603.468L1021.35 614.003L1015.53 613.513L1016.99 596.186L1022.39 596.641Z" fill="white"/>
<path d="M1013.66 494.825L1034.42 503.554C1035.5 504.063 1036.32 504.272 1037.16 504.203C1037.85 504.262 1038.84 504.205 1039.97 504.021C1040.4 503.917 1040.95 503.964 1041.52 503.872C1042.08 503.78 1042.51 503.677 1042.95 503.434C1043.39 503.192 1043.69 502.938 1043.86 502.534C1044.18 502.142 1044.22 501.587 1044.14 500.882C1044.07 500.039 1043.72 499.311 1043.2 498.848C1042.68 498.386 1041.86 498.177 1041.01 498.246L1037.78 498.532L1037.29 492.767L1040.52 492.481C1041.79 492.308 1042.89 492.54 1043.97 492.911C1045.06 493.282 1046 493.779 1046.91 494.554C1047.82 495.329 1048.46 496.08 1049.07 497.109C1049.68 498.138 1050 499.282 1050.05 500.402C1050.19 501.95 1050.09 503.198 1049.57 504.411C1049.06 505.485 1048.41 506.547 1047.51 507.308C1046.61 508.07 1045.58 508.682 1044.42 509.143C1043.27 509.604 1041.98 509.914 1040.59 509.936C1039.6 509.993 1038.76 510.062 1038.06 510.142C1037.35 510.222 1036.8 510.176 1036.1 510.117C1035.55 510.071 1034.87 509.874 1034.19 509.677C1033.5 509.48 1032.83 509.144 1031.89 508.785L1014.61 501.746L1015.55 512.156L1009.78 512.647L1008.17 495.34L1013.66 494.825Z" fill="white"/>
<path d="M1046.8 530.566L1045.82 519.036L1034.84 520.066C1035.36 520.529 1035.87 521.13 1036.36 522.009C1036.85 522.748 1037.05 523.742 1037.1 524.724C1037.22 526.688 1036.8 528.328 1035.71 529.633C1034.63 530.937 1032.88 531.767 1030.49 531.985L1020.08 532.923C1018.67 533.083 1017.42 532.978 1016.33 532.608C1015.25 532.237 1014.31 531.739 1013.4 530.965C1012.63 530.202 1011.87 529.3 1011.38 528.421C1010.91 527.404 1010.57 526.399 1010.54 525.14C1010.5 524.019 1010.59 522.91 1010.82 521.813C1011.19 520.727 1011.55 519.78 1012.33 518.868C1012.96 517.945 1013.85 517.322 1014.88 516.71C1015.91 516.099 1017.05 515.776 1018.46 515.616L1020.15 515.479L1020.64 521.244L1019.09 521.393C1018.11 521.45 1017.38 521.807 1016.91 522.465C1016.43 523.123 1016.24 523.805 1016.31 524.648C1016.38 525.491 1016.73 526.22 1017.26 526.543C1017.78 527.006 1018.62 527.076 1019.6 527.019L1029.16 526.15C1030.01 526.081 1030.6 525.712 1031.2 525.204C1031.66 524.685 1032 524.015 1031.93 523.171C1031.83 522.744 1031.72 522.316 1031.62 521.889C1031.36 521.588 1031.25 521.299 1030.98 521.137C1030.72 520.975 1030.45 520.813 1030.19 520.651C1029.92 520.49 1029.64 520.466 1029.5 520.455L1029.09 515.394L1050.9 513.461L1052.43 530.063L1046.8 530.566Z" fill="white"/>
<path d="M1024.21 437.358L1021.24 426.219L1010.67 429.098C1011.34 429.434 1011.98 430.047 1012.48 430.786C1013.12 431.538 1013.46 432.405 1013.8 433.41C1014.34 435.27 1014.19 437.072 1013.36 438.539C1012.54 440.005 1010.91 441.124 1008.62 441.769L998.477 444.545C997.194 444.855 995.923 445.028 994.826 444.796C993.728 444.564 992.642 444.193 991.707 443.695C990.783 443.059 989.998 442.435 989.236 441.533C988.613 440.643 988.14 439.626 987.818 438.482C987.495 437.338 987.45 436.217 987.543 435.108C987.637 433.999 988.007 432.914 988.505 431.978C989.003 431.043 989.777 430.131 990.679 429.369C991.581 428.608 992.737 428.147 994.031 427.697L995.742 427.283L997.227 432.852L995.794 433.29C994.801 433.486 994.199 433.994 993.725 434.652C993.389 435.321 993.319 436.153 993.527 437.008C993.734 437.863 994.242 438.464 994.773 438.788C995.443 439.124 996.136 439.182 997.142 438.848L1006.28 436.407C1007 436.188 1007.59 435.819 1008.06 435.161C1008.54 434.503 1008.6 433.81 1008.38 433.093C1008.27 432.666 1008.03 432.227 1007.78 431.926C1007.52 431.625 1007.26 431.463 1006.99 431.301C1006.73 431.139 1006.46 430.978 1006.18 430.954C1005.91 430.931 1005.63 430.907 1005.5 430.757L1004.11 425.754L1025.26 419.996L1029.62 436.139L1024.21 437.358Z" fill="white"/>
<path d="M978.504 343.474C979.683 342.736 980.827 342.413 982.098 342.241C983.231 342.057 984.328 342.289 985.426 342.521C986.512 342.892 987.447 343.389 988.371 344.026C989.283 344.8 989.918 345.552 990.529 346.581C991.141 347.609 991.475 348.615 991.659 349.747C991.843 350.879 991.749 351.988 991.517 353.085C991.285 354.183 990.788 355.118 990.14 356.18C989.504 357.104 988.451 357.993 987.284 358.592L966.465 370.381C965.286 371.119 964.142 371.441 962.871 371.614C961.738 371.797 960.641 371.565 959.543 371.333C958.446 371.101 957.522 370.465 956.598 369.829C955.686 369.054 955.051 368.303 954.44 367.274C953.828 366.245 953.494 365.24 953.31 364.108C953.126 362.975 953.22 361.866 953.452 360.769C953.684 359.672 954.181 358.737 954.829 357.674C955.466 356.751 956.518 355.862 957.685 355.262L978.504 343.474ZM960.604 360.394C959.876 360.752 959.402 361.41 959.205 362.091C959.008 362.773 959.076 363.616 959.434 364.344C959.791 365.072 960.449 365.546 961.131 365.743C961.813 365.94 962.656 365.872 963.396 365.376L984.215 353.587C984.943 353.23 985.417 352.572 985.614 351.89C985.811 351.209 985.743 350.366 985.385 349.637C985.027 348.909 984.369 348.435 983.688 348.238C983.006 348.041 982.163 348.11 981.423 348.606L960.604 360.394Z" fill="white"/>
<path d="M929.635 268.859L922.657 267.155L927.456 263.231L934.421 265.074L938.092 269.571L906.735 295.41L903.065 290.913L929.635 268.859Z" fill="white"/>
<path d="M937.104 281.348C938.156 280.459 939.323 279.86 940.329 279.526C941.473 279.203 942.594 279.158 943.703 279.251C944.812 279.345 945.898 279.715 946.821 280.351C947.757 280.849 948.669 281.624 949.431 282.526C950.193 283.427 950.665 284.444 951 285.45C951.334 286.455 951.518 287.587 951.424 288.696C951.331 289.805 951.099 290.903 950.451 291.965C949.942 293.039 949.167 293.951 948.115 294.839L929.661 310.038C928.609 310.926 927.442 311.526 926.436 311.86C925.292 312.183 924.171 312.228 923.062 312.134C921.953 312.041 920.867 311.67 919.944 311.034C919.008 310.537 918.096 309.762 917.334 308.86C916.573 307.958 916.1 306.941 915.765 305.936C915.431 304.931 915.247 303.798 915.341 302.689C915.434 301.58 915.666 300.483 916.314 299.421C916.823 298.347 917.598 297.435 918.65 296.546L937.104 281.348ZM922.321 301.044C921.72 301.551 921.245 302.209 921.175 303.041C921.105 303.873 921.336 304.451 921.832 305.19C922.34 305.792 923.01 306.127 923.842 306.197C924.673 306.267 925.251 306.037 925.991 305.541L944.444 290.342C945.046 289.834 945.52 289.176 945.59 288.345C945.66 287.513 945.429 286.935 944.933 286.195C944.425 285.594 943.755 285.259 942.924 285.188C942.092 285.118 941.514 285.349 940.774 285.845L922.321 301.044Z" fill="white"/>
<path d="M859.037 220.193C860.342 221.28 861.405 221.928 862.225 222.137C863.057 222.207 863.935 221.722 864.872 220.545L868.272 216.643C868.885 215.997 869.082 215.315 869.002 214.611C868.922 213.906 868.564 213.178 867.918 212.565C867.132 211.94 866.324 211.593 865.607 211.812C864.891 212.031 864.301 212.4 863.85 212.781L861.688 215.251L857.266 211.389L859.428 208.918C860.203 208.006 861.093 207.383 862.122 206.772C863.139 206.299 864.284 205.977 865.404 205.932C866.525 205.886 867.634 205.98 868.72 206.35C869.806 206.721 870.88 207.23 871.78 208.144C872.946 209.219 873.835 210.271 874.158 211.415C874.48 212.559 874.676 213.553 874.744 214.396C874.698 214.951 874.651 215.505 874.604 216.059C874.558 216.614 874.372 217.157 874.048 217.688C873.724 218.219 873.389 218.889 872.903 219.685C872.417 220.482 871.654 221.256 870.867 222.306C869.942 223.345 869.167 224.257 868.566 224.765C867.953 225.411 867.363 225.78 866.774 226.149C866.184 226.519 865.618 226.611 864.925 226.552C864.231 226.494 863.538 226.435 862.568 226.354C862.902 227.359 863.109 228.214 863.051 228.907C863.131 229.612 862.934 230.293 862.737 230.975C862.402 231.645 862.066 232.314 861.441 233.099C860.817 233.884 860.042 234.796 859.117 235.835C858.191 236.874 857.428 237.647 856.815 238.294C856.202 238.94 855.601 239.448 855.15 239.829C854.699 240.21 854.26 240.452 853.821 240.694C853.381 240.936 852.954 241.04 852.388 241.132C851.105 241.443 849.845 241.476 848.471 241.221C847.096 240.966 845.756 240.294 844.463 239.069C843.817 238.456 843.182 237.704 842.559 236.814C841.936 235.924 841.601 234.919 841.418 233.787C841.234 232.654 841.327 231.545 841.559 230.448C841.941 229.224 842.601 228.023 843.677 226.857L845.839 224.387L850.261 228.249L848.249 230.592C847.636 231.239 847.289 232.047 847.369 232.752C847.299 233.584 847.668 234.173 848.314 234.786C848.961 235.399 849.642 235.596 850.486 235.527C851.191 235.447 851.931 234.951 852.682 234.316L856.545 229.895C857.019 229.237 857.482 228.718 857.656 228.313C857.829 227.909 858.015 227.366 857.911 226.939C857.807 226.511 857.565 226.072 857.184 225.621C856.803 225.17 856.295 224.569 855.51 223.945L859.037 220.193Z" fill="white"/>
<path d="M875.028 234.248C876.332 235.335 877.395 235.983 878.215 236.191C879.047 236.262 879.925 235.777 880.862 234.6L884.262 230.698C884.875 230.051 885.072 229.37 884.992 228.665C884.912 227.96 884.554 227.232 883.908 226.62C883.123 225.995 882.314 225.648 881.598 225.867C880.881 226.085 880.291 226.455 879.841 226.835L877.678 229.306L873.256 225.443L875.419 222.973C876.194 222.061 877.084 221.438 878.113 220.827C879.13 220.354 880.274 220.031 881.395 219.986C882.515 219.941 883.625 220.034 884.71 220.405C885.796 220.776 886.87 221.285 887.771 222.198C888.937 223.274 889.825 224.326 890.148 225.47C890.47 226.614 890.666 227.607 890.735 228.451C890.688 229.005 890.641 229.56 890.595 230.114C890.548 230.669 890.363 231.211 890.039 231.743C889.715 232.274 889.379 232.943 888.893 233.74C888.407 234.537 887.644 235.31 886.857 236.361C885.932 237.4 885.157 238.312 884.556 238.819C883.943 239.466 883.353 239.835 882.764 240.204C882.186 240.435 881.608 240.665 880.915 240.607C880.222 240.549 879.529 240.49 878.558 240.408C878.892 241.414 879.1 242.269 879.041 242.962C879.121 243.667 878.924 244.348 878.727 245.03C878.392 245.699 878.056 246.369 877.432 247.154C876.807 247.939 876.032 248.851 875.107 249.89C874.182 250.929 873.418 251.702 872.805 252.349C872.193 252.995 871.591 253.503 871.14 253.884C870.69 254.264 870.25 254.507 869.811 254.749C869.372 254.991 868.944 255.095 868.378 255.187C867.095 255.497 865.836 255.531 864.461 255.276C863.086 255.02 861.747 254.349 860.454 253.123C859.807 252.51 859.172 251.759 858.549 250.869C857.926 249.979 857.592 248.974 857.408 247.841C857.224 246.709 857.317 245.6 857.549 244.503C857.932 243.278 858.591 242.078 859.667 240.912L861.829 238.441L866.251 242.304L864.239 244.647C863.626 245.294 863.279 246.102 863.359 246.807C863.289 247.638 863.658 248.228 864.305 248.841C864.951 249.454 865.633 249.651 866.476 249.582C867.181 249.502 867.921 249.006 868.673 248.371L872.535 243.95C873.01 243.292 873.472 242.772 873.646 242.368C873.82 241.964 874.005 241.421 873.901 240.994C873.798 240.566 873.555 240.127 873.174 239.676C872.794 239.225 872.286 238.624 871.501 237.999L875.028 234.248Z" fill="white"/>
<path d="M808.581 171.134L803.304 167.479L800.609 171.3L796.382 168.432L802.247 160.13L816.497 169.986L813.165 174.731L785.127 197.638L780.116 194.145L808.581 171.134Z" fill="white"/>
<path d="M699.929 154.861L716.696 139.8C717.597 139.038 718.072 138.38 718.407 137.711C718.743 137.041 719.09 136.232 719.461 135.147C719.635 134.743 719.82 134.2 720.005 133.657C720.191 133.114 720.226 132.698 720.272 132.144C720.319 131.589 720.065 131.289 719.823 130.85C719.581 130.41 719.049 130.087 718.368 129.89C717.559 129.542 716.854 129.623 716.138 129.841C715.421 130.06 714.947 130.718 714.727 131.677L713.626 134.795L708.209 132.803L709.298 129.824C709.669 128.738 710.316 127.676 711.08 126.903C711.855 125.991 712.745 125.368 713.762 124.895C714.779 124.422 715.923 124.1 717.044 124.054C718.165 124.009 719.413 124.114 720.487 124.623C721.977 125.168 723.039 125.816 723.94 126.729C724.701 127.631 725.313 128.66 725.635 129.803C725.958 130.947 726.142 132.08 726.025 133.466C725.92 134.714 725.676 135.949 725.144 137.301C724.785 138.248 724.437 139.056 724.252 139.599C723.916 140.268 723.731 140.811 723.407 141.342C723.083 141.874 722.759 142.405 722.297 142.924C721.834 143.444 721.233 143.951 720.481 144.586L706.721 157.108L716.608 160.733L714.616 166.149L698.365 160.174L699.929 154.861Z" fill="white"/>
<path d="M732.656 147.566C734.284 148.122 735.521 148.365 736.225 148.285C736.942 148.066 737.705 147.293 738.099 145.93L739.906 141.057C740.253 140.248 740.173 139.543 739.954 138.827C739.596 138.099 739.077 137.636 738.268 137.289C737.321 136.93 736.478 136.999 735.876 137.506C735.275 138.014 734.813 138.534 734.627 139.076L733.527 142.195L728.11 140.203L729.21 137.085C729.581 135.999 730.229 134.937 730.992 134.164C731.767 133.252 732.657 132.629 733.662 132.294C734.68 131.822 735.812 131.638 736.933 131.593C738.054 131.547 739.301 131.652 740.375 132.162C741.865 132.706 743.055 133.504 743.817 134.406C744.578 135.308 745.063 136.186 745.409 137.053C745.639 137.631 745.731 138.197 745.823 138.763C745.915 139.329 746.007 139.895 745.949 140.588C745.891 141.281 745.694 141.963 745.473 142.921C745.265 143.741 744.894 144.827 744.512 146.051C743.979 147.402 743.608 148.488 743.261 149.296C742.914 150.105 742.439 150.763 742.127 151.155C741.665 151.675 741.225 151.917 740.647 152.148C740.069 152.378 739.214 152.585 738.359 152.792C738.982 153.683 739.478 154.422 739.709 155C739.94 155.578 740.158 156.294 740.1 156.988C740.042 157.681 739.972 158.512 739.624 159.321C739.265 160.268 738.895 161.353 738.501 162.716C737.98 163.929 737.609 165.014 737.262 165.823C736.915 166.631 736.579 167.301 736.255 167.832C735.931 168.363 735.619 168.756 735.306 169.148C734.994 169.541 734.555 169.783 734.104 170.164C733.063 170.914 731.908 171.375 730.625 171.685C729.342 171.996 727.829 171.729 726.061 171.162C725.253 170.814 724.318 170.317 723.532 169.692C722.609 169.056 721.974 168.305 721.362 167.276C720.739 166.386 720.417 165.242 720.383 163.983C720.211 162.712 720.466 161.337 721.01 159.847L722.111 156.729L727.528 158.721L726.451 161.562C726.104 162.37 726.172 163.214 726.391 163.93C726.61 164.647 727.268 165.121 728.077 165.468C728.885 165.815 729.59 165.735 730.318 165.378C731.046 165.02 731.521 164.362 731.88 163.415L733.872 157.999C734.219 157.19 734.266 156.636 734.312 156.081C734.359 155.527 734.255 155.099 734.001 154.799C733.759 154.36 733.367 154.047 732.835 153.723C732.304 153.399 731.634 153.064 730.676 152.844L732.656 147.566Z" fill="white"/>
<path d="M640.789 120.991C642.43 121.408 643.677 121.513 644.394 121.294C645.111 121.075 645.747 120.152 646.141 118.789L647.543 113.742C647.752 112.922 647.671 112.217 647.314 111.489C646.945 110.899 646.287 110.425 645.466 110.216C644.508 109.996 643.664 110.065 643.063 110.572C642.462 111.08 642.138 111.611 641.941 112.293L641.118 115.434L635.515 113.985L636.35 110.705C636.582 109.608 637.23 108.546 637.866 107.622C638.641 106.71 639.404 105.937 640.421 105.464C641.438 104.991 642.456 104.518 643.576 104.473C644.709 104.289 645.957 104.394 647.054 104.626C648.556 105.032 649.757 105.692 650.657 106.605C651.558 107.518 652.054 108.258 652.4 109.125C652.63 109.703 652.873 110.142 652.965 110.708C653.056 111.274 653.149 111.84 653.229 112.545C653.17 113.238 653.112 113.931 653.03 114.902C652.96 115.733 652.728 116.831 652.346 118.055C651.952 119.418 651.72 120.515 651.373 121.323C651.025 122.132 650.828 122.813 650.366 123.333C650.042 123.864 649.452 124.233 648.874 124.464C648.296 124.694 647.568 125.052 646.574 125.247C647.348 126.01 647.844 126.75 648.213 127.34C648.582 127.929 648.801 128.645 648.743 129.339C648.823 130.043 648.753 130.875 648.545 131.695C648.324 132.654 648.092 133.751 647.698 135.114C647.316 136.338 647.084 137.435 646.737 138.244C646.389 139.052 646.192 139.733 645.868 140.265C645.544 140.796 645.371 141.2 645.058 141.592C644.746 141.985 644.434 142.377 643.995 142.62C643.081 143.52 641.914 144.12 640.631 144.43C639.336 144.88 637.811 144.751 636.171 144.334C635.351 144.125 634.404 143.767 633.48 143.13C632.545 142.633 631.771 141.87 631.148 140.98C630.525 140.089 630.052 139.072 629.88 137.802C629.707 136.531 629.674 135.271 630.091 133.631L630.914 130.49L636.517 131.939L635.717 134.803C635.508 135.623 635.577 136.466 635.934 137.195C636.292 137.923 636.812 138.385 637.77 138.606C638.591 138.814 639.295 138.734 640.035 138.238C640.775 137.742 641.111 137.072 641.331 136.113L642.78 130.512C642.989 129.692 643.036 129.137 643.082 128.583C643.129 128.028 642.887 127.589 642.633 127.288C642.379 126.988 641.986 126.676 641.455 126.352C640.912 126.166 640.242 125.831 639.283 125.61L640.789 120.991Z" fill="white"/>
<rect x="257.453" y="297.518" width="600.321" height="600.321" rx="300.16" fill="#131313"/>
<rect x="257.453" y="297.518" width="600.321" height="600.321" rx="300.16" stroke="#262626" stroke-width="20"/>
<path d="M534.192 4.5H579.808C588.576 4.5 594.119 13.9199 589.86 21.585L567.053 62.6387C562.671 70.5255 551.329 70.5255 546.947 62.6387L524.14 21.585C519.881 13.9199 525.424 4.5 534.192 4.5Z" fill="#FFDEA8" stroke="#262626" stroke-width="9"/>
</svg>