<svg width="1830" height="1830" viewBox="0 0 1830 1830" fill="none" xmlns="http://www.w3.org/2000/svg">
<g clip-path="url(#clip0_roulette_chip_red)">
<path d="M1824.25 914.62C1824.25 965.64 1820.05 1015.68 1811.98 1064.42C1811.9 1064.87 1811.83 1065.31 1811.75 1065.75C1788.65 1203.94 1734.38 1331.58 1656.43 1441.2C1656.22 1441.49 1656.01 1441.78 1655.8 1442.07C1626.38 1483.35 1593.59 1522.06 1557.83 1557.82C1535.97 1579.68 1513 1600.44 1489.01 1620C1486.19 1622.3 1483.35 1624.58 1480.5 1626.85C1471.95 1633.65 1463.28 1640.31 1454.48 1646.8C1450.37 1649.83 1446.24 1652.83 1442.08 1655.8C1413.58 1676.12 1383.85 1694.84 1353.03 1711.83C1349.82 1713.59 1346.6 1715.34 1343.37 1717.08C1258.05 1762.75 1164.61 1795.22 1065.76 1811.75C1016.61 1819.97 966.12 1824.25 914.63 1824.25C863.14 1824.25 812.65 1819.97 763.5 1811.75C664.65 1795.22 571.21 1762.75 485.89 1717.08C482.66 1715.34 479.43 1713.59 476.22 1711.83C445.41 1694.84 415.68 1676.12 387.18 1655.8C383.02 1652.83 378.88 1649.83 374.77 1646.8C365.98 1640.31 357.3 1633.65 348.75 1626.85C345.9 1624.58 343.07 1622.3 340.25 1620C316.26 1600.44 293.28 1579.68 271.43 1557.82C235.67 1522.07 202.88 1483.35 173.45 1442.08C95.16 1332.26 40.67 1204.31 17.5 1065.75C17.42 1065.31 17.35 1064.87 17.27 1064.42C9.2 1015.68 5 965.64 5 914.62C5 863.6 9.28 812.64 17.5 763.49C40.67 624.93 95.16 496.98 173.45 387.17C232.31 304.61 304.62 232.3 387.18 173.45C496.99 95.16 624.94 40.67 763.5 17.5C812.65 9.28 863.14 5 914.63 5C966.12 5 1016.61 9.28 1065.76 17.5C1204.32 40.67 1332.27 95.16 1442.08 173.45C1524.64 232.31 1596.95 304.62 1655.8 387.18C1734.09 496.99 1788.58 624.93 1811.75 763.49C1819.97 812.64 1824.25 863.13 1824.25 914.62Z" fill="#D82A48"/>
<path d="M914.63 1829.25C863.66 1829.25 812.54 1825.02 762.67 1816.68C664.91 1800.33 570.99 1768.3 483.53 1721.49C480.28 1719.74 477.04 1717.98 473.82 1716.22C443.03 1699.24 412.91 1680.29 384.28 1659.88C380.01 1656.83 375.81 1653.79 371.81 1650.83C363.09 1644.39 354.29 1637.64 345.64 1630.77C342.77 1628.48 339.93 1626.19 337.09 1623.88C313.05 1604.28 289.76 1583.24 267.89 1561.36C232 1525.48 198.85 1486.32 169.38 1444.99L168.45 1443.67C129.24 1388.47 96.19 1328.91 70.19 1266.62C43.43 1202.49 24.04 1135.19 12.57 1066.58L12.35 1065.3C4.15 1015.8 0 965.12 0 914.62C0 864.12 4.23 812.53 12.57 762.67C24.04 694.06 43.43 626.76 70.19 562.63C96.39 499.85 129.76 439.84 169.38 384.27C228.73 301.02 301.04 228.72 384.28 169.38C439.85 129.76 499.85 96.39 562.64 70.19C626.77 43.43 694.07 24.04 762.68 12.57C812.55 4.23 863.67 0 914.64 0C965.61 0 1016.73 4.23 1066.6 12.57C1135.21 24.04 1202.51 43.43 1266.64 70.19C1329.42 96.39 1389.43 129.76 1445 169.38C1528.25 228.73 1600.55 301.04 1659.89 384.28C1699.51 439.85 1732.88 499.85 1759.08 562.63C1785.84 626.76 1805.23 694.06 1816.7 762.67C1825.04 812.53 1829.27 863.66 1829.27 914.62C1829.27 965.58 1825.12 1015.8 1816.93 1065.24L1816.69 1066.65C1805.27 1135 1785.95 1202.13 1759.3 1266.12C1733.21 1328.75 1699.98 1388.63 1660.53 1444.11L1659.87 1445.01C1630.46 1486.27 1597.32 1525.43 1561.38 1561.36C1539.46 1583.28 1516.18 1604.32 1492.18 1623.88C1489.35 1626.19 1486.49 1628.48 1483.63 1630.77C1474.85 1637.75 1466.05 1644.5 1457.46 1650.83C1453.24 1653.94 1449.04 1656.99 1445 1659.87C1416.36 1680.29 1386.23 1699.25 1355.46 1716.21C1352.23 1717.98 1349 1719.74 1345.76 1721.48C1258.29 1768.3 1164.37 1800.33 1066.61 1816.68C1016.75 1825.02 965.62 1829.25 914.65 1829.25H914.63ZM178.45 1440.48C207.37 1480.89 239.84 1519.17 274.97 1554.29C296.6 1575.93 319.63 1596.74 343.41 1616.13C346.22 1618.42 349.03 1620.69 351.87 1622.94C360.42 1629.74 369.12 1636.41 377.74 1642.78C381.7 1645.7 385.86 1648.71 390.09 1651.73C418.4 1671.91 448.19 1690.66 478.64 1707.45C481.83 1709.2 485.05 1710.94 488.27 1712.68C574.76 1758.98 667.65 1790.65 764.33 1806.82C813.65 1815.07 864.22 1819.25 914.64 1819.25C965.06 1819.25 1015.63 1815.07 1064.94 1806.82C1161.63 1790.65 1254.51 1758.98 1341.02 1712.67C1344.23 1710.94 1347.44 1709.2 1350.64 1707.44C1381.07 1690.67 1410.87 1671.92 1439.19 1651.72C1443.19 1648.86 1447.34 1645.85 1451.53 1642.77C1460.02 1636.51 1468.73 1629.83 1477.4 1622.93C1480.23 1620.67 1483.06 1618.41 1485.86 1616.12C1509.6 1596.77 1532.62 1575.96 1554.31 1554.28C1589.86 1518.73 1622.64 1480 1651.74 1439.16L1652.39 1438.26C1731.09 1327.58 1784.5 1198.47 1806.83 1064.92L1807.07 1063.54C1815.16 1014.7 1819.26 964.57 1819.26 914.62C1819.26 864.67 1815.08 813.63 1806.83 764.31C1784.43 630.38 1730.81 500.97 1651.74 390.08C1593.05 307.74 1521.54 236.23 1439.19 177.52C1328.3 98.46 1198.88 44.83 1064.95 22.43C1015.63 14.18 965.06 10 914.64 10C864.22 10 813.66 14.18 764.33 22.43C630.39 44.83 500.98 98.46 390.09 177.52C307.75 236.21 236.24 307.72 177.53 390.07C98.47 500.97 44.84 630.38 22.44 764.31C14.19 813.63 10.01 864.2 10.01 914.62C10.01 965.04 14.12 1014.7 22.21 1063.6L22.43 1064.85C44.84 1198.86 98.47 1328.27 177.53 1439.16L178.46 1440.47L178.45 1440.48Z" fill="#D82A48"/>
<path d="M914.62 1415.06C1191.01 1415.06 1415.06 1191.01 1415.06 914.62C1415.06 638.234 1191.01 414.18 914.62 414.18C638.234 414.18 414.18 638.234 414.18 914.62C414.18 1191.01 638.234 1415.06 914.62 1415.06Z" fill="white"/>
<path d="M1065.75 17.5V149.4C1065.75 197.21 1026.99 235.97 979.178 235.97H850.058C802.248 235.97 763.488 197.21 763.488 149.4V17.5C812.638 9.28 863.128 5 914.618 5C966.108 5 1016.6 9.28 1065.75 17.5Z" fill="white"/>
<path d="M1065.75 1679.85V1811.75C1016.6 1819.97 966.108 1824.25 914.618 1824.25C863.128 1824.25 812.638 1819.97 763.488 1811.75V1679.85C763.488 1632.04 802.248 1593.28 850.058 1593.28H979.178C1026.99 1593.28 1065.75 1632.04 1065.75 1679.85Z" fill="white"/>
<path d="M235.97 850.06V979.18C235.97 1026.99 197.22 1065.75 149.41 1065.75H17.49C17.42 1065.31 17.35 1064.86 17.27 1064.42C9.2 1015.68 5 965.64 5 914.62C5 863.6 9.28 812.64 17.5 763.49H149.41C197.22 763.49 235.97 802.25 235.97 850.06Z" fill="white"/>
<path d="M1824.25 914.62C1824.25 965.64 1820.05 1015.68 1811.98 1064.42C1811.9 1064.86 1811.83 1065.31 1811.76 1065.75H1679.85C1632.04 1065.75 1593.28 1026.99 1593.28 979.18V850.06C1593.28 802.25 1632.04 763.49 1679.85 763.49H1811.75C1819.97 812.64 1824.25 863.13 1824.25 914.62Z" fill="white"/>
<path d="M480.399 389.089L389.099 480.389C355.289 514.199 300.479 514.199 266.669 480.389L173.449 387.169C232.309 304.609 304.619 232.299 387.179 173.449L480.399 266.669C514.209 300.469 514.209 355.289 480.399 389.089Z" fill="white"/>
<path d="M1655.8 1442.07C1626.38 1483.35 1593.59 1522.06 1557.83 1557.82C1535.97 1579.68 1513 1600.44 1489.01 1620C1486.19 1622.3 1483.35 1624.58 1480.5 1626.85C1471.95 1633.65 1463.28 1640.31 1454.48 1646.8C1450.37 1649.84 1446.24 1652.84 1442.08 1655.8L1380.06 1593.78L1348.86 1562.58C1315.05 1528.77 1315.05 1473.96 1348.86 1440.15L1440.16 1348.85C1473.97 1315.05 1528.78 1315.05 1562.59 1348.85L1593.79 1380.05L1655.8 1442.07Z" fill="white"/>
<path d="M1655.8 387.179L1562.59 480.389C1528.78 514.199 1473.97 514.199 1440.16 480.389L1348.86 389.089C1315.05 355.289 1315.05 300.469 1348.86 266.669L1442.08 173.449C1524.64 232.309 1596.95 304.619 1655.8 387.179Z" fill="white"/>
<path d="M480.399 1562.58L449.199 1593.78L387.179 1655.8C383.019 1652.84 378.879 1649.84 374.769 1646.8C365.979 1640.31 357.299 1633.65 348.749 1626.85C345.899 1624.58 343.069 1622.3 340.249 1620C316.259 1600.44 293.279 1579.68 271.429 1557.82C235.669 1522.07 202.879 1483.35 173.449 1442.08L266.669 1348.85C300.479 1315.05 355.289 1315.05 389.099 1348.85L480.399 1440.15C514.209 1473.96 514.209 1528.77 480.399 1562.58Z" fill="white"/>
<path opacity="0.12" d="M1811.75 763.49C1788.58 624.93 1734.09 496.99 1655.8 387.18C1596.95 304.62 1524.64 232.31 1442.08 173.45C1332.27 95.16 1204.32 40.67 1065.76 17.5C1016.61 9.28 966.12 5 914.63 5C863.14 5 812.65 9.28 763.5 17.5C624.94 40.67 496.99 95.16 387.18 173.45C304.62 232.3 232.31 304.61 173.45 387.17C95.16 496.98 40.67 624.93 17.5 763.49C9.28 812.64 5 863.13 5 914.62C5 966.11 9.2 1015.68 17.27 1064.42C17.35 1064.86 17.42 1065.31 17.49 1065.75C40.66 1204.31 95.15 1332.26 173.44 1442.07C202.87 1483.35 235.66 1522.07 271.42 1557.82C293.27 1579.68 316.25 1600.44 340.24 1620C343.06 1622.3 345.89 1624.58 348.74 1626.85C357.29 1633.65 365.97 1640.31 374.76 1646.8C378.87 1649.84 383.01 1652.84 387.17 1655.8C415.67 1676.12 445.4 1694.84 476.21 1711.83C479.42 1713.59 482.65 1715.34 485.88 1717.08C571.2 1762.75 664.64 1795.22 763.49 1811.75C812.64 1819.97 863.13 1824.25 914.62 1824.25C966.11 1824.25 1016.6 1819.97 1065.75 1811.75C1164.6 1795.22 1258.04 1762.75 1343.36 1717.08C1346.59 1715.34 1349.81 1713.59 1353.02 1711.83C1383.84 1694.84 1413.57 1676.12 1442.07 1655.8C1446.23 1652.84 1450.36 1649.84 1454.47 1646.8C1463.27 1640.31 1471.94 1633.65 1480.49 1626.85C1483.34 1624.58 1486.18 1622.3 1489 1620C1512.99 1600.44 1535.96 1579.68 1557.82 1557.82C1593.58 1522.06 1626.37 1483.35 1655.79 1442.07H1655.8C1656.01 1441.78 1656.21 1441.49 1656.42 1441.2C1734.37 1331.58 1788.64 1203.94 1811.74 1065.75H1811.75C1811.82 1065.31 1811.89 1064.86 1811.97 1064.42C1820.04 1015.68 1824.24 965.64 1824.24 914.62C1824.24 863.6 1819.96 812.64 1811.74 763.49H1811.75ZM1593.79 1380.05C1536.32 1463.76 1463.77 1536.31 1380.06 1593.78C1287.24 1657.52 1180.69 1702.72 1065.76 1724.05C1016.77 1733.14 966.26 1737.89 914.63 1737.89C863 1737.89 812.49 1733.14 763.5 1724.05C648.57 1702.73 542.03 1657.53 449.2 1593.78C365.49 1536.32 292.94 1463.77 235.46 1380.06C171.73 1287.23 126.53 1180.68 105.21 1065.75C96.12 1016.76 91.37 966.24 91.37 914.62C91.37 863 96.12 812.48 105.21 763.49C126.53 648.57 171.73 542.02 235.47 449.19C292.94 365.48 365.49 292.93 449.2 235.47C542.03 171.72 648.57 126.52 763.5 105.2C812.49 96.11 863.01 91.36 914.63 91.36C966.25 91.36 1016.77 96.11 1065.76 105.2C1180.69 126.53 1287.24 171.73 1380.06 235.47C1463.77 292.94 1536.31 365.48 1593.79 449.19C1657.53 542.02 1702.73 648.57 1724.05 763.49C1733.14 812.48 1737.89 863 1737.89 914.62C1737.89 966.24 1733.14 1016.76 1724.05 1065.75C1702.73 1180.68 1657.53 1287.22 1593.79 1380.05Z" fill="#450007"/>
<path d="M914.621 1350.19C855.831 1350.19 798.781 1338.67 745.071 1315.95C693.201 1294.01 646.621 1262.61 606.631 1222.61C566.641 1182.61 535.231 1136.04 513.291 1084.17C490.571 1030.46 479.051 973.421 479.051 914.621C479.051 855.821 490.571 798.781 513.291 745.071C535.231 693.201 566.631 646.621 606.631 606.631C646.631 566.641 693.201 535.231 745.071 513.291C798.781 490.571 855.821 479.051 914.621 479.051C973.421 479.051 1030.46 490.571 1084.17 513.291C1136.04 535.231 1182.62 566.631 1222.61 606.631C1262.61 646.631 1294.01 693.201 1315.95 745.071C1338.67 798.781 1350.19 855.821 1350.19 914.621C1350.19 973.421 1338.67 1030.46 1315.95 1084.17C1294.01 1136.04 1262.61 1182.62 1222.61 1222.61C1182.61 1262.61 1136.04 1294.01 1084.17 1315.95C1030.46 1338.67 973.421 1350.19 914.621 1350.19ZM914.621 515.701C694.651 515.701 515.691 694.661 515.691 914.631C515.691 1134.6 694.651 1313.56 914.621 1313.56C1134.59 1313.56 1313.55 1134.6 1313.55 914.631C1313.55 694.661 1134.59 515.701 914.621 515.701Z" fill="#D82A48"/>
<path d="M1054.52 707.886C1057.36 703.971 1063.66 706.036 1063.55 710.966L1062.12 771.476C1098.11 765.19 1129.46 771.417 1136.58 773.025C1140.16 773.835 1141.64 778.075 1139.33 780.938C1133.85 787.748 1104.79 821.93 1060.53 838.256L1058.81 910.904C1091.17 888.541 1106.3 865.623 1112.52 853.739L1112.69 853.444C1113.56 852.023 1114.93 851.406 1115.95 851.19C1117.02 850.965 1118.05 851.078 1118.88 851.31C1119.7 851.54 1120.65 851.984 1121.45 852.761C1122.29 853.566 1123.18 854.988 1122.98 856.862L1114.78 931.274C1114.66 932.363 1114.19 933.383 1113.43 934.176L934.573 1121.94C931.46 1125.2 925.953 1123 925.953 1118.49V965.188C925.953 962.748 927.709 960.703 930.052 960.271L932.444 959.822C981.483 950.51 1017.81 935.748 1044.58 919.947L1036.86 844.87C999.127 852.421 965.615 845.777 958.248 844.112C954.665 843.303 953.189 839.065 955.491 836.204L956.064 835.498C962.566 827.563 989.601 796.757 1030.25 780.45L1029.15 769.832L1022.6 769.798C1018.62 769.777 1016.26 765.34 1018.47 762.027L1054.39 708.077L1054.52 707.886Z" fill="#D82A48" stroke="#D82A48" stroke-width="8"/>
<path d="M765.701 711.808C765.585 706.878 771.884 704.813 774.729 708.728L774.862 708.919L810.782 762.869C812.988 766.182 810.627 770.619 806.646 770.64L800.095 770.674L798.996 781.292C840.98 798.134 868.441 830.442 873.757 837.046C876.059 839.907 874.583 844.144 871 844.954C863.633 846.619 830.121 853.263 792.386 845.712L784.667 920.789C811.871 936.846 848.944 951.829 899.196 961.112C901.539 961.545 903.295 963.589 903.295 966.03V1119.33C903.295 1123.84 897.788 1126.05 894.675 1122.78L715.816 935.018C715.061 934.224 714.587 933.205 714.467 932.116L706.271 857.704C706.065 855.83 706.96 854.408 707.795 853.603C708.6 852.826 709.553 852.382 710.373 852.151C711.197 851.92 712.225 851.807 713.295 852.032C714.317 852.248 715.687 852.864 716.559 854.286L716.727 854.581L717.366 855.783C723.954 867.965 739.134 890.116 770.437 911.747L768.714 839.098C724.46 822.772 695.396 788.59 689.913 781.78C687.608 778.917 689.091 774.677 692.671 773.867L694.348 773.502C703.854 771.506 733.462 766.438 767.127 772.317L765.701 711.808Z" fill="#D82A48" stroke="#D82A48" stroke-width="8"/>
</g>
<defs>
<clipPath id="clip0_roulette_chip_red">
<rect width="1829.25" height="1829.25" fill="white"/>
</clipPath>
</defs>
</svg>
